<svg version="1.1" id="Layer_1" xmlns="http://www.w3.org/2000/svg" xmlns:xlink="http://www.w3.org/1999/xlink" x="0px" y="0px"
	 width="100%" viewBox="0 0 3509 2481" enable-background="new 0 0 3509 2481" xml:space="preserve">
<path fill="#FFFFFF" opacity="1.000000" stroke="none" 
	d="
M1890.000000,2484.000000 
	C1260.000122,2484.000000 631.000244,2484.000000 2.000253,2484.000000 
	C2.000169,1656.666870 2.000169,829.333862 2.000084,2.000587 
	C1171.999512,2.000391 2341.999023,2.000391 3511.999023,2.000196 
	C3511.999268,829.332703 3511.999268,1656.665405 3511.999512,2483.999023 
	C2971.666748,2484.000000 2431.333252,2484.000000 1890.000000,2484.000000 
M1537.559937,1003.136658 
	C1482.011597,1035.291870 1426.481323,1067.478027 1370.910645,1099.594727 
	C1291.154907,1145.688965 1211.406128,1191.795898 1131.515259,1237.655273 
	C1126.167603,1240.724854 1124.120239,1243.937378 1124.126343,1250.066895 
	C1124.280029,1404.311401 1124.240112,1558.555908 1124.310547,1712.800537 
	C1124.311768,1715.264771 1125.265503,1717.728394 1126.530640,1721.330444 
	C1157.851685,1739.505493 1189.141846,1757.733887 1220.499268,1775.845825 
	C1316.875488,1831.511963 1413.274536,1887.138916 1509.674438,1942.764160 
	C1519.680176,1948.537842 1529.751465,1954.198120 1539.453125,1959.718018 
	C1543.432861,1957.465454 1546.621826,1955.691528 1549.781860,1953.867310 
	C1635.524048,1904.364258 1721.264648,1854.858154 1807.002808,1805.348145 
	C1855.333130,1777.439453 1903.658691,1749.522705 1953.450317,1721.822510 
	C1956.708374,1723.425049 1960.069580,1724.848755 1963.208740,1726.657715 
	C1991.740723,1743.100220 2020.221191,1759.632080 2048.740967,1776.095703 
	C2138.624268,1827.982544 2228.515381,1879.855225 2318.409668,1931.722656 
	C2334.787109,1941.172119 2351.193604,1950.570923 2367.504395,1959.945679 
	C2369.513916,1958.804565 2370.948975,1958.001709 2372.372559,1957.179321 
	C2477.793457,1896.276855 2583.210205,1835.368042 2688.635010,1774.472656 
	C2717.438965,1757.835083 2746.276367,1741.255249 2775.067139,1724.594482 
	C2777.730469,1723.053223 2781.827881,1722.705322 2781.672852,1716.191772 
	C2781.690674,1560.848877 2781.714111,1405.505981 2781.681152,1250.163086 
	C2781.680420,1247.246704 2781.010254,1244.330566 2781.040039,1241.342163 
	C2781.040039,1241.342163 2780.544678,1241.164307 2779.554199,1240.007080 
	C2642.217773,1160.660645 2504.881348,1081.314087 2367.708984,1000.104736 
	C2367.723389,872.860474 2367.738281,745.616272 2367.751465,618.372009 
	C2367.754639,589.725403 2367.595459,561.077209 2367.877197,532.433350 
	C2367.937012,526.334839 2365.932129,522.896606 2360.569092,519.884338 
	C2335.348145,505.718903 2310.373047,491.115448 2285.322510,476.647308 
	C2229.749023,444.550323 2174.197998,412.414276 2118.608887,380.343994 
	C2066.190674,350.103241 2013.747559,319.905487 1961.263062,289.779968 
	C1958.537598,288.215576 1955.321533,287.505951 1950.881714,286.474030 
	C1813.324219,365.881714 1675.766724,445.289398 1538.272705,524.660400 
	C1538.272705,527.992004 1538.272705,530.650452 1538.272705,533.308899 
	C1538.272705,686.930969 1538.271484,840.552979 1538.284668,994.175049 
	C1538.284912,996.835754 1538.460815,999.496521 1537.559937,1003.136658 
z"/>
<path fill="#1588DB" opacity="1.000000" stroke="none" 
	d="
M1952.333862,286.398315 
	C1955.321533,287.505951 1958.537598,288.215576 1961.263062,289.779968 
	C2013.747559,319.905487 2066.190674,350.103241 2118.608887,380.343994 
	C2174.197998,412.414276 2229.749023,444.550323 2285.322510,476.647308 
	C2310.373047,491.115448 2335.348145,505.718903 2360.569092,519.884338 
	C2365.932129,522.896606 2367.937012,526.334839 2367.877197,532.433350 
	C2367.595459,561.077209 2367.754639,589.725403 2367.751465,618.372009 
	C2367.738281,745.616272 2367.723389,872.860474 2367.299316,1001.211792 
	C2366.889893,1002.318848 2366.148438,1002.264954 2365.427246,1002.142639 
	C2357.188965,997.748840 2349.648438,993.518066 2342.158691,989.199280 
	C2282.791260,954.966736 2223.424072,920.733826 2164.075195,886.469482 
	C2096.081787,847.214111 2028.114624,807.913269 1960.094116,768.705017 
	C1957.582886,767.257446 1954.630127,766.575928 1951.937988,764.630310 
	C1952.042969,760.062866 1952.136597,756.402527 1952.136719,752.742249 
	C1952.144043,600.619507 1952.141724,448.496735 1952.150879,296.373993 
	C1952.151001,293.048767 1952.270264,289.723541 1952.333862,286.398315 
z"/>
<path fill="#1588DB" opacity="1.000000" stroke="none" 
	d="
M2781.352539,1718.067261 
	C2781.827881,1722.705322 2777.730469,1723.053223 2775.067139,1724.594482 
	C2746.276367,1741.255249 2717.438965,1757.835083 2688.635010,1774.472656 
	C2583.210205,1835.368042 2477.793457,1896.276855 2372.372559,1957.179321 
	C2370.948975,1958.001709 2369.513916,1958.804565 2367.504395,1959.945679 
	C2351.193604,1950.570923 2334.787109,1941.172119 2318.409668,1931.722656 
	C2228.515381,1879.855225 2138.624268,1827.982544 2048.740967,1776.095703 
	C2020.221191,1759.632080 1991.740723,1743.100220 1963.208740,1726.657715 
	C1960.069580,1724.848755 1956.708374,1723.425049 1952.776367,1721.245117 
	C1952.102295,1720.667725 1952.593506,1719.854492 1953.079590,1719.406006 
	C1960.823853,1714.927979 1968.143921,1711.005005 1975.331299,1706.852783 
	C2090.094727,1640.550415 2204.853516,1574.240356 2319.576904,1507.868774 
	C2335.364502,1498.734985 2350.956299,1489.261963 2367.305420,1480.039795 
	C2369.940918,1481.372070 2371.869141,1482.681763 2373.885010,1483.838379 
	C2416.014893,1508.011230 2458.206543,1532.077026 2500.279785,1556.347900 
	C2554.746826,1587.768188 2609.123535,1619.344116 2663.533691,1650.862793 
	C2696.063721,1669.706909 2728.557373,1688.613892 2761.128662,1707.386719 
	C2767.729248,1711.191040 2774.604004,1714.519409 2781.352539,1718.067261 
z"/>
<path fill="#042C91" opacity="1.000000" stroke="none" 
	d="
M1952.593506,1719.854492 
	C1952.593506,1719.854492 1952.102295,1720.667725 1952.044434,1721.138672 
	C1903.658691,1749.522705 1855.333130,1777.439453 1807.002808,1805.348145 
	C1721.264648,1854.858154 1635.524048,1904.364258 1549.781860,1953.867310 
	C1546.621826,1955.691528 1543.432861,1957.465454 1539.453125,1959.718018 
	C1529.751465,1954.198120 1519.680176,1948.537842 1509.674438,1942.764160 
	C1413.274536,1887.138916 1316.875488,1831.511963 1220.499268,1775.845825 
	C1189.141846,1757.733887 1157.851685,1739.505493 1126.469482,1720.132080 
	C1128.021240,1717.797363 1129.556641,1716.526855 1131.258179,1715.544434 
	C1172.130371,1691.945801 1213.030273,1668.395386 1253.904663,1644.800415 
	C1295.062256,1621.042358 1336.201782,1597.252686 1377.342041,1573.464722 
	C1419.058350,1549.343994 1460.731201,1525.147705 1502.498779,1501.116333 
	C1514.872314,1493.997192 1527.502686,1487.324707 1540.688721,1480.872803 
	C1557.452271,1490.661011 1573.509644,1500.081055 1589.638306,1509.377563 
	C1699.062988,1572.449585 1808.519897,1635.465576 1917.911987,1698.594238 
	C1929.652222,1705.369385 1941.041504,1712.753052 1952.593506,1719.854492 
z"/>
<path fill="#032B91" opacity="1.000000" stroke="none" 
	d="
M2781.512695,1717.129517 
	C2774.604004,1714.519409 2767.729248,1711.191040 2761.128662,1707.386719 
	C2728.557373,1688.613892 2696.063721,1669.706909 2663.533691,1650.862793 
	C2609.123535,1619.344116 2554.746826,1587.768188 2500.279785,1556.347900 
	C2458.206543,1532.077026 2416.014893,1508.011230 2373.885010,1483.838379 
	C2371.869141,1482.681763 2369.940918,1481.372070 2367.174561,1479.111328 
	C2366.363770,1323.811035 2366.351562,1169.533203 2366.328613,1015.255310 
	C2366.327881,1010.925171 2366.211182,1006.595093 2366.148438,1002.264954 
	C2366.148438,1002.264954 2366.889893,1002.318848 2367.217285,1002.143250 
	C2504.881348,1081.314087 2642.217773,1160.660645 2779.913086,1240.637939 
	C2780.272217,1241.268799 2780.652344,1241.414307 2780.652344,1241.414307 
	C2781.010254,1244.330566 2781.680420,1247.246704 2781.681152,1250.163086 
	C2781.714111,1405.505981 2781.690674,1560.848877 2781.512695,1717.129517 
z"/>
<path fill="#1588DB" opacity="1.000000" stroke="none" 
	d="
M1540.015381,1480.447632 
	C1527.502686,1487.324707 1514.872314,1493.997192 1502.498779,1501.116333 
	C1460.731201,1525.147705 1419.058350,1549.343994 1377.342041,1573.464722 
	C1336.201782,1597.252686 1295.062256,1621.042358 1253.904663,1644.800415 
	C1213.030273,1668.395386 1172.130371,1691.945801 1131.258179,1715.544434 
	C1129.556641,1716.526855 1128.021240,1717.797363 1126.091553,1719.562988 
	C1125.265503,1717.728394 1124.311768,1715.264771 1124.310547,1712.800537 
	C1124.240112,1558.555908 1124.280029,1404.311401 1124.126343,1250.066895 
	C1124.120239,1243.937378 1126.167603,1240.724854 1131.515259,1237.655273 
	C1211.406128,1191.795898 1291.154907,1145.688965 1370.910645,1099.594727 
	C1426.481323,1067.478027 1482.011597,1035.291870 1538.598633,1002.504089 
	C1540.378662,1001.930176 1541.119995,1001.988892 1541.435303,1002.776428 
	C1540.566772,1007.382019 1539.738647,1011.258667 1539.737061,1015.135620 
	C1539.671631,1166.584961 1539.678955,1318.034302 1539.695190,1469.483643 
	C1539.695557,1473.138306 1539.903931,1476.792969 1540.015381,1480.447632 
z"/>
<path fill="#032B91" opacity="1.000000" stroke="none" 
	d="
M1541.861206,1002.047607 
	C1541.119995,1001.988892 1540.378662,1001.930176 1539.096191,1002.014404 
	C1538.460815,999.496521 1538.284912,996.835754 1538.284668,994.175049 
	C1538.271484,840.552979 1538.272705,686.930969 1538.272705,533.308899 
	C1538.272705,530.650452 1538.272705,527.992004 1538.272705,524.660400 
	C1675.766724,445.289398 1813.324219,365.881714 1951.607788,286.436157 
	C1952.270264,289.723541 1952.151001,293.048767 1952.150879,296.373993 
	C1952.141724,448.496735 1952.144043,600.619507 1952.136719,752.742249 
	C1952.136597,756.402527 1952.042969,760.062866 1951.310791,764.954590 
	C1847.741577,825.616455 1744.863159,885.062134 1641.962158,944.468628 
	C1608.625610,963.714355 1575.229858,982.857483 1541.861206,1002.047607 
z"/>
<path fill="#1588DB" opacity="1.000000" stroke="none" 
	d="
M2780.846191,1241.378174 
	C2780.652344,1241.414307 2780.272217,1241.268799 2780.408447,1241.216553 
	C2780.544678,1241.164307 2781.040039,1241.342163 2780.846191,1241.378174 
z"/>
<path fill="#FEFEFF" opacity="1.000000" stroke="none" 
	d="
M1541.435303,1002.776367 
	C1575.229858,982.857483 1608.625610,963.714355 1641.962158,944.468628 
	C1744.863159,885.062134 1847.741577,825.616455 1951.255859,765.861755 
	C1954.630127,766.575928 1957.582886,767.257446 1960.094116,768.705017 
	C2028.114624,807.913269 2096.081787,847.214111 2164.075195,886.469482 
	C2223.424072,920.733826 2282.791260,954.966736 2342.158691,989.199280 
	C2349.648438,993.518066 2357.188965,997.748840 2365.427246,1002.142639 
	C2366.211182,1006.595093 2366.327881,1010.925171 2366.328613,1015.255310 
	C2366.351562,1169.533203 2366.363770,1323.811035 2366.508057,1479.017456 
	C2350.956299,1489.261963 2335.364502,1498.734985 2319.576904,1507.868774 
	C2204.853516,1574.240356 2090.094727,1640.550415 1975.331299,1706.852783 
	C1968.143921,1711.005005 1960.823853,1714.927979 1953.079590,1719.406006 
	C1941.041504,1712.753052 1929.652222,1705.369385 1917.911987,1698.594238 
	C1808.519897,1635.465576 1699.062988,1572.449585 1589.638306,1509.377563 
	C1573.509644,1500.081055 1557.452271,1490.661011 1540.688599,1480.872803 
	C1539.903931,1476.792969 1539.695557,1473.138306 1539.695190,1469.483643 
	C1539.678955,1318.034302 1539.671631,1166.584961 1539.737061,1015.135620 
	C1539.738647,1011.258667 1540.566772,1007.382019 1541.435303,1002.776367 
M1677.664673,1099.000000 
	C1677.664673,1168.193359 1677.664673,1237.386841 1677.664673,1307.432739 
	C1681.127441,1307.432739 1683.389893,1307.448120 1685.652100,1307.430420 
	C1739.925049,1307.006958 1794.200684,1306.770508 1848.469482,1306.037109 
	C1864.611816,1305.819214 1880.363159,1302.276245 1893.841064,1292.907593 
	C1923.179443,1272.514526 1935.122925,1243.885986 1932.420166,1208.608154 
	C1930.462402,1183.052368 1918.059204,1164.141724 1896.315063,1151.170288 
	C1890.868042,1147.920898 1884.943726,1145.471802 1878.477539,1142.278931 
	C1881.135376,1140.530640 1883.066772,1139.321777 1884.934692,1138.021851 
	C1911.332520,1119.649658 1922.482788,1093.922241 1917.088623,1062.797363 
	C1911.623779,1031.264893 1892.009033,1010.705627 1860.832520,1001.952820 
	C1846.948242,998.054688 1832.614868,997.563110 1818.346313,997.495300 
	C1775.023193,997.289429 1731.698364,997.420837 1688.374268,997.420837 
	C1685.129395,997.420837 1681.884644,997.420776 1677.664673,997.420776 
	C1677.664673,1031.206543 1677.664673,1064.103271 1677.664673,1099.000000 
M2154.110107,1015.104126 
	C2151.000000,1018.564819 2147.893799,1022.029114 2144.779053,1025.485474 
	C2118.087158,1055.103882 2091.407227,1084.733154 2064.688721,1114.327393 
	C2059.665527,1119.890747 2054.484619,1125.311768 2049.376465,1130.798340 
	C2048.774658,1130.591064 2048.172607,1130.383667 2047.570801,1130.176392 
	C2047.570801,1086.139038 2047.570801,1042.101562 2047.570801,998.135742 
	C2025.939209,998.135742 2005.475952,998.135742 1984.790039,998.135742 
	C1984.790039,1101.328979 1984.790039,1203.800659 1984.790039,1306.855713 
	C2005.713135,1306.855713 2026.166870,1306.855713 2047.679077,1306.855713 
	C2047.679077,1303.158936 2047.679077,1299.927734 2047.679077,1296.696533 
	C2047.679077,1271.375488 2047.574097,1246.053345 2047.805176,1220.734375 
	C2047.836060,1217.370728 2048.579102,1213.107300 2050.684570,1210.815430 
	C2064.632080,1195.632202 2079.029297,1180.861816 2093.331787,1166.007202 
	C2094.149902,1165.157715 2095.422607,1164.746582 2096.558594,1164.088257 
	C2097.637939,1165.597656 2098.506592,1166.619019 2099.165039,1167.761230 
	C2124.555908,1211.812134 2150.040771,1255.809814 2175.153320,1300.019043 
	C2178.171631,1305.332642 2181.206055,1307.685791 2187.448486,1307.580444 
	C2209.098633,1307.215210 2230.758301,1307.461304 2252.414551,1307.404785 
	C2254.506104,1307.399292 2256.596924,1306.908447 2259.888428,1306.490479 
	C2219.514404,1243.274658 2179.834229,1181.145264 2139.714600,1118.328003 
	C2177.496338,1078.516113 2215.142334,1038.846924 2254.461426,997.414856 
	C2249.088135,997.414856 2245.918945,997.414795 2242.749512,997.414795 
	C2222.426025,997.414795 2202.094971,997.729492 2181.782471,997.255493 
	C2173.974121,997.073303 2167.605469,998.120239 2163.009277,1005.123169 
	C2160.844482,1008.421692 2157.772949,1011.125244 2154.110107,1015.104126 
M2248.323730,1462.884033 
	C2248.323730,1429.381958 2248.323730,1395.879761 2248.323730,1361.988525 
	C2235.504883,1361.988525 2223.965576,1361.988525 2211.631348,1361.988525 
	C2208.362793,1374.305420 2205.160645,1386.463135 2201.906494,1398.606812 
	C2198.609863,1410.909912 2195.261963,1423.199341 2191.936523,1435.494751 
	C2187.037354,1423.140137 2183.764893,1410.978027 2180.485352,1398.817993 
	C2177.149658,1386.449463 2173.807373,1374.082886 2170.591064,1362.171143 
	C2157.612793,1362.171143 2146.099121,1362.171143 2134.688477,1362.171143 
	C2132.838867,1375.204224 2133.319336,1471.705444 2135.197021,1478.928711 
	C2142.002441,1478.928711 2148.804932,1478.928711 2156.493652,1478.928711 
	C2156.493652,1451.031982 2156.493652,1423.802979 2156.493652,1396.573975 
	C2157.085205,1396.503906 2157.676758,1396.433960 2158.268311,1396.364014 
	C2165.274414,1423.880493 2172.280762,1451.396973 2179.340820,1479.124512 
	C2187.611084,1479.124512 2195.129883,1479.124512 2202.876953,1479.124512 
	C2210.452148,1451.849365 2215.997314,1424.421509 2224.243896,1397.759277 
	C2224.880371,1397.874390 2225.516602,1397.989502 2226.153076,1398.104614 
	C2226.153076,1424.939941 2226.153076,1451.775269 2226.153076,1479.069824 
	C2233.639648,1479.069824 2240.443359,1479.069824 2248.324219,1479.069824 
	C2248.324219,1473.982910 2248.324219,1469.410767 2248.323730,1462.884033 
M1954.749023,1428.230469 
	C1958.912354,1428.316040 1963.075806,1428.401733 1967.965820,1428.502319 
	C1967.965820,1446.110229 1967.965820,1462.324097 1967.965820,1479.055908 
	C1976.224609,1479.055908 1983.697388,1479.055908 1991.671143,1479.055908 
	C1991.671143,1439.840576 1991.671143,1401.110718 1991.671143,1362.181396 
	C1983.545898,1362.181396 1976.069946,1362.181396 1967.346436,1362.181396 
	C1967.346436,1377.494873 1967.346436,1392.262817 1967.346436,1407.594604 
	C1958.802246,1407.594604 1951.508179,1407.644409 1944.215210,1407.580444 
	C1937.057617,1407.517700 1929.901123,1407.339478 1921.899536,1407.196899 
	C1921.899536,1391.354980 1921.899536,1376.837158 1921.899536,1362.196289 
	C1913.516357,1362.196289 1906.039673,1362.196289 1898.661621,1362.196289 
	C1896.747437,1376.265259 1897.319336,1471.915894 1899.259888,1478.876953 
	C1906.766235,1478.876953 1914.234863,1478.876953 1922.040161,1478.876953 
	C1922.809570,1461.713135 1921.740601,1445.173218 1922.702148,1428.230591 
	C1933.540649,1428.230591 1943.174561,1428.230591 1954.749023,1428.230469 
M1763.674805,1391.007324 
	C1763.674805,1420.215454 1763.674805,1449.423462 1763.674805,1479.054688 
	C1772.342041,1479.054688 1779.817261,1479.054688 1788.546387,1479.054688 
	C1788.546387,1464.416260 1788.546387,1450.303345 1788.546387,1436.262817 
	C1800.049194,1435.534424 1810.296753,1434.416260 1820.552124,1434.339844 
	C1838.366211,1434.206909 1855.190430,1419.368896 1854.603149,1396.721680 
	C1854.070801,1376.200073 1839.652832,1360.671387 1819.689331,1361.455811 
	C1803.721924,1362.083008 1787.710083,1361.548218 1771.718262,1361.618652 
	C1769.197998,1361.629761 1766.679810,1362.115845 1763.674683,1362.433716 
	C1763.674683,1371.754761 1763.674683,1380.383789 1763.674805,1391.007324 
M2081.604980,1360.282104 
	C2074.631836,1360.044189 2067.655029,1359.530762 2060.686279,1359.626099 
	C2046.587769,1359.818848 2034.827759,1365.660278 2025.901489,1376.313965 
	C2010.521973,1394.670044 2009.663696,1416.279541 2013.413574,1438.579468 
	C2015.100708,1448.612427 2019.543213,1457.364624 2026.434204,1465.017944 
	C2041.874512,1482.166016 2067.359619,1486.198486 2088.850586,1476.882202 
	C2103.227783,1470.649780 2111.852295,1458.736084 2114.478760,1442.151733 
	C2106.237305,1439.709595 2098.831543,1437.515137 2091.186035,1435.249634 
	C2089.816650,1439.003906 2088.978760,1441.501099 2088.002197,1443.942749 
	C2084.193604,1453.464600 2077.158447,1459.040405 2066.971680,1459.906372 
	C2056.775146,1460.773071 2049.187012,1455.913940 2043.210449,1447.915405 
	C2035.704712,1437.870239 2036.149902,1401.867310 2043.209839,1391.958618 
	C2054.697021,1375.836304 2078.575928,1376.334595 2087.929688,1393.630005 
	C2088.996094,1395.601807 2089.983887,1397.615967 2091.246338,1400.073975 
	C2099.242432,1397.933716 2106.761230,1395.921387 2114.592773,1393.825195 
	C2110.050293,1376.010010 2099.502441,1365.626831 2081.604980,1360.282104 
M1747.830444,1381.196533 
	C1751.363770,1374.981323 1749.519775,1368.631226 1748.865723,1362.323486 
	C1717.210693,1362.323486 1686.122803,1362.323486 1654.865479,1362.323486 
	C1654.865479,1368.904785 1654.865479,1374.730591 1654.865479,1381.704590 
	C1666.515503,1381.704590 1677.645386,1381.704590 1689.671143,1381.704590 
	C1689.671143,1393.421509 1689.671143,1403.998169 1689.671143,1414.574829 
	C1689.671143,1425.558472 1689.565430,1436.543335 1689.701416,1447.525269 
	C1689.831299,1458.011475 1689.062378,1468.552612 1690.235229,1478.909180 
	C1698.747437,1478.909180 1706.214111,1478.909180 1714.530762,1478.909180 
	C1714.530762,1446.374146 1714.530762,1414.537354 1714.530762,1381.554077 
	C1725.592163,1381.554077 1735.818237,1381.554077 1747.830444,1381.196533 
M1875.444458,1457.661743 
	C1868.060669,1453.465088 1860.340820,1456.185791 1852.253418,1455.890381 
	C1852.253418,1463.937012 1852.253418,1471.310913 1852.253418,1478.930176 
	C1860.252197,1478.930176 1867.621338,1478.930176 1875.686890,1478.930176 
	C1875.686890,1471.986694 1875.686890,1465.756104 1875.444458,1457.661743 
z"/>
<path fill="#052D92" opacity="1.000000" stroke="none" 
	d="
M1677.664673,1098.000000 
	C1677.664673,1064.103271 1677.664673,1031.206543 1677.664673,997.420776 
	C1681.884644,997.420776 1685.129395,997.420837 1688.374268,997.420837 
	C1731.698364,997.420837 1775.023193,997.289429 1818.346313,997.495300 
	C1832.614868,997.563110 1846.948242,998.054688 1860.832520,1001.952820 
	C1892.009033,1010.705627 1911.623779,1031.264893 1917.088623,1062.797363 
	C1922.482788,1093.922241 1911.332520,1119.649658 1884.934692,1138.021851 
	C1883.066772,1139.321777 1881.135376,1140.530640 1878.477539,1142.278931 
	C1884.943726,1145.471802 1890.868042,1147.920898 1896.315063,1151.170288 
	C1918.059204,1164.141724 1930.462402,1183.052368 1932.420166,1208.608154 
	C1935.122925,1243.885986 1923.179443,1272.514526 1893.841064,1292.907593 
	C1880.363159,1302.276245 1864.611816,1305.819214 1848.469482,1306.037109 
	C1794.200684,1306.770508 1739.925049,1307.006958 1685.652100,1307.430420 
	C1683.389893,1307.448120 1681.127441,1307.432739 1677.664673,1307.432739 
	C1677.664673,1237.386841 1677.664673,1168.193359 1677.664673,1098.000000 
M1863.928467,1234.418457 
	C1869.201538,1225.604492 1869.264526,1215.876343 1867.849365,1206.300049 
	C1866.105225,1194.499146 1860.197144,1184.765503 1848.772583,1180.155762 
	C1841.521484,1177.229736 1833.646851,1175.288818 1825.876831,1174.342407 
	C1814.710205,1172.982300 1803.390015,1172.593750 1792.124878,1172.398315 
	C1774.915649,1172.099609 1757.697510,1172.319946 1740.248047,1172.319946 
	C1740.248047,1199.954956 1740.248047,1226.713989 1740.248047,1253.283447 
	C1741.425537,1253.667603 1742.028320,1254.035034 1742.632080,1254.036743 
	C1762.610107,1254.095093 1782.588745,1254.201904 1802.566406,1254.111816 
	C1812.540771,1254.066895 1822.548584,1254.091064 1832.478149,1253.295898 
	C1845.288086,1252.270142 1856.189331,1247.228271 1863.928467,1234.418457 
M1837.919312,1115.589478 
	C1840.435913,1113.983887 1843.116455,1112.584961 1845.443115,1110.739746 
	C1862.497681,1097.215576 1860.842285,1070.023438 1845.924072,1058.232300 
	C1838.544067,1052.399292 1829.800171,1050.421875 1820.770020,1050.241699 
	C1796.161255,1049.750610 1771.544434,1049.658813 1746.930298,1049.458130 
	C1744.725342,1049.440186 1742.517456,1049.780884 1740.063965,1049.974487 
	C1740.063965,1073.487915 1740.063965,1096.312378 1740.063965,1119.554810 
	C1741.636108,1119.778687 1742.882568,1120.108887 1744.129395,1120.110840 
	C1766.432495,1120.145508 1788.744751,1120.506836 1811.034180,1119.957275 
	C1819.529419,1119.747925 1827.972656,1117.429443 1837.919312,1115.589478 
z"/>
<path fill="#062E93" opacity="1.000000" stroke="none" 
	d="
M2154.611328,1014.601257 
	C2157.772949,1011.125244 2160.844482,1008.421692 2163.009277,1005.123169 
	C2167.605469,998.120239 2173.974121,997.073303 2181.782471,997.255493 
	C2202.094971,997.729492 2222.426025,997.414795 2242.749512,997.414795 
	C2245.918945,997.414795 2249.088135,997.414856 2254.461426,997.414856 
	C2215.142334,1038.846924 2177.496338,1078.516113 2139.714600,1118.328003 
	C2179.834229,1181.145264 2219.514404,1243.274658 2259.888428,1306.490479 
	C2256.596924,1306.908447 2254.506104,1307.399292 2252.414551,1307.404785 
	C2230.758301,1307.461304 2209.098633,1307.215210 2187.448486,1307.580444 
	C2181.206055,1307.685791 2178.171631,1305.332642 2175.153320,1300.019043 
	C2150.040771,1255.809814 2124.555908,1211.812134 2099.165039,1167.761230 
	C2098.506592,1166.619019 2097.637939,1165.597656 2096.558594,1164.088257 
	C2095.422607,1164.746582 2094.149902,1165.157715 2093.331787,1166.007202 
	C2079.029297,1180.861816 2064.632080,1195.632202 2050.684570,1210.815430 
	C2048.579102,1213.107300 2047.836060,1217.370728 2047.805176,1220.734375 
	C2047.574097,1246.053345 2047.679077,1271.375488 2047.679077,1296.696533 
	C2047.679077,1299.927734 2047.679077,1303.158936 2047.679077,1306.855713 
	C2026.166870,1306.855713 2005.713135,1306.855713 1984.790039,1306.855713 
	C1984.790039,1203.800659 1984.790039,1101.328979 1984.790039,998.135742 
	C2005.475952,998.135742 2025.939209,998.135742 2047.570801,998.135742 
	C2047.570801,1042.101562 2047.570801,1086.139038 2047.570801,1130.176392 
	C2048.172607,1130.383667 2048.774658,1130.591064 2049.376465,1130.798340 
	C2054.484619,1125.311768 2059.665527,1119.890747 2064.688721,1114.327393 
	C2091.407227,1084.733154 2118.087158,1055.103882 2144.779053,1025.485474 
	C2147.893799,1022.029114 2151.000000,1018.564819 2154.611328,1014.601257 
z"/>
<path fill="#178ADC" opacity="1.000000" stroke="none" 
	d="
M2248.323975,1463.861328 
	C2248.324219,1469.410767 2248.324219,1473.982910 2248.324219,1479.069824 
	C2240.443359,1479.069824 2233.639648,1479.069824 2226.153076,1479.069824 
	C2226.153076,1451.775269 2226.153076,1424.939941 2226.153076,1398.104614 
	C2225.516602,1397.989502 2224.880371,1397.874390 2224.243896,1397.759277 
	C2215.997314,1424.421509 2210.452148,1451.849365 2202.876953,1479.124512 
	C2195.129883,1479.124512 2187.611084,1479.124512 2179.340820,1479.124512 
	C2172.280762,1451.396973 2165.274414,1423.880493 2158.268311,1396.364014 
	C2157.676758,1396.433960 2157.085205,1396.503906 2156.493652,1396.573975 
	C2156.493652,1423.802979 2156.493652,1451.031982 2156.493652,1478.928711 
	C2148.804932,1478.928711 2142.002441,1478.928711 2135.197021,1478.928711 
	C2133.319336,1471.705444 2132.838867,1375.204224 2134.688477,1362.171143 
	C2146.099121,1362.171143 2157.612793,1362.171143 2170.591064,1362.171143 
	C2173.807373,1374.082886 2177.149658,1386.449463 2180.485352,1398.817993 
	C2183.764893,1410.978027 2187.037354,1423.140137 2191.936523,1435.494751 
	C2195.261963,1423.199341 2198.609863,1410.909912 2201.906494,1398.606812 
	C2205.160645,1386.463135 2208.362793,1374.305420 2211.631348,1361.988525 
	C2223.965576,1361.988525 2235.504883,1361.988525 2248.323730,1361.988525 
	C2248.323730,1395.879761 2248.323730,1429.381958 2248.323975,1463.861328 
z"/>
<path fill="#1589DB" opacity="1.000000" stroke="none" 
	d="
M1953.778687,1428.230469 
	C1943.174561,1428.230591 1933.540649,1428.230591 1922.702148,1428.230591 
	C1921.740601,1445.173218 1922.809570,1461.713135 1922.040161,1478.876953 
	C1914.234863,1478.876953 1906.766235,1478.876953 1899.259888,1478.876953 
	C1897.319336,1471.915894 1896.747437,1376.265259 1898.661621,1362.196289 
	C1906.039673,1362.196289 1913.516357,1362.196289 1921.899536,1362.196289 
	C1921.899536,1376.837158 1921.899536,1391.354980 1921.899536,1407.196899 
	C1929.901123,1407.339478 1937.057617,1407.517700 1944.215210,1407.580444 
	C1951.508179,1407.644409 1958.802246,1407.594604 1967.346436,1407.594604 
	C1967.346436,1392.262817 1967.346436,1377.494873 1967.346436,1362.181396 
	C1976.069946,1362.181396 1983.545898,1362.181396 1991.671143,1362.181396 
	C1991.671143,1401.110718 1991.671143,1439.840576 1991.671143,1479.055908 
	C1983.697388,1479.055908 1976.224609,1479.055908 1967.965820,1479.055908 
	C1967.965820,1462.324097 1967.965820,1446.110229 1967.965820,1428.502319 
	C1963.075806,1428.401733 1958.912354,1428.316040 1953.778687,1428.230469 
z"/>
<path fill="#178ADC" opacity="1.000000" stroke="none" 
	d="
M1763.674805,1390.010010 
	C1763.674683,1380.383789 1763.674683,1371.754761 1763.674683,1362.433716 
	C1766.679810,1362.115845 1769.197998,1361.629761 1771.718262,1361.618652 
	C1787.710083,1361.548218 1803.721924,1362.083008 1819.689331,1361.455811 
	C1839.652832,1360.671387 1854.070801,1376.200073 1854.603149,1396.721680 
	C1855.190430,1419.368896 1838.366211,1434.206909 1820.552124,1434.339844 
	C1810.296753,1434.416260 1800.049194,1435.534424 1788.546387,1436.262817 
	C1788.546387,1450.303345 1788.546387,1464.416260 1788.546387,1479.054688 
	C1779.817261,1479.054688 1772.342041,1479.054688 1763.674805,1479.054688 
	C1763.674805,1449.423462 1763.674805,1420.215454 1763.674805,1390.010010 
M1788.296509,1398.950439 
	C1788.296509,1403.813721 1788.296509,1408.676880 1788.296509,1415.053223 
	C1799.195068,1414.038330 1808.802124,1413.882202 1818.077393,1412.048462 
	C1825.629272,1410.555420 1828.352661,1405.759521 1828.506226,1398.288696 
	C1828.661133,1390.751587 1825.338501,1384.925293 1818.049072,1383.291504 
	C1808.496460,1381.150757 1798.650146,1380.592163 1788.296753,1382.629761 
	C1788.296753,1387.831177 1788.296753,1392.434570 1788.296509,1398.950439 
z"/>
<path fill="#1A8BDC" opacity="1.000000" stroke="none" 
	d="
M2082.437012,1360.483887 
	C2099.502441,1365.626831 2110.050293,1376.010010 2114.592773,1393.825195 
	C2106.761230,1395.921387 2099.242432,1397.933716 2091.246338,1400.073975 
	C2089.983887,1397.615967 2088.996094,1395.601807 2087.929688,1393.630005 
	C2078.575928,1376.334595 2054.697021,1375.836304 2043.209839,1391.958618 
	C2036.149902,1401.867310 2035.704712,1437.870239 2043.210449,1447.915405 
	C2049.187012,1455.913940 2056.775146,1460.773071 2066.971680,1459.906372 
	C2077.158447,1459.040405 2084.193604,1453.464600 2088.002197,1443.942749 
	C2088.978760,1441.501099 2089.816650,1439.003906 2091.186035,1435.249634 
	C2098.831543,1437.515137 2106.237305,1439.709595 2114.478760,1442.151733 
	C2111.852295,1458.736084 2103.227783,1470.649780 2088.850586,1476.882202 
	C2067.359619,1486.198486 2041.874512,1482.166016 2026.434204,1465.017944 
	C2019.543213,1457.364624 2015.100708,1448.612427 2013.413574,1438.579468 
	C2009.663696,1416.279541 2010.521973,1394.670044 2025.901489,1376.313965 
	C2034.827759,1365.660278 2046.587769,1359.818848 2060.686279,1359.626099 
	C2067.655029,1359.530762 2074.631836,1360.044189 2082.437012,1360.483887 
z"/>
<path fill="#188BDC" opacity="1.000000" stroke="none" 
	d="
M1746.937378,1381.375244 
	C1735.818237,1381.554077 1725.592163,1381.554077 1714.530762,1381.554077 
	C1714.530762,1414.537354 1714.530762,1446.374146 1714.530762,1478.909180 
	C1706.214111,1478.909180 1698.747437,1478.909180 1690.235229,1478.909180 
	C1689.062378,1468.552612 1689.831299,1458.011475 1689.701416,1447.525269 
	C1689.565430,1436.543335 1689.671143,1425.558472 1689.671143,1414.574829 
	C1689.671143,1403.998169 1689.671143,1393.421509 1689.671143,1381.704590 
	C1677.645386,1381.704590 1666.515503,1381.704590 1654.865479,1381.704590 
	C1654.865479,1374.730591 1654.865479,1368.904785 1654.865479,1362.323486 
	C1686.122803,1362.323486 1717.210693,1362.323486 1748.865723,1362.323486 
	C1749.519775,1368.631226 1751.363770,1374.981323 1746.937378,1381.375244 
z"/>
<path fill="#1E8FDD" opacity="1.000000" stroke="none" 
	d="
M1875.565674,1458.593750 
	C1875.686890,1465.756104 1875.686890,1471.986694 1875.686890,1478.930176 
	C1867.621338,1478.930176 1860.252197,1478.930176 1852.253418,1478.930176 
	C1852.253418,1471.310913 1852.253418,1463.937012 1852.253418,1455.890381 
	C1860.340820,1456.185791 1868.060669,1453.465088 1875.565674,1458.593750 
z"/>
<path fill="#FDFEFF" opacity="1.000000" stroke="none" 
	d="
M1863.599365,1235.108887 
	C1856.189331,1247.228271 1845.288086,1252.270142 1832.478149,1253.295898 
	C1822.548584,1254.091064 1812.540771,1254.066895 1802.566406,1254.111816 
	C1782.588745,1254.201904 1762.610107,1254.095093 1742.632080,1254.036743 
	C1742.028320,1254.035034 1741.425537,1253.667603 1740.248047,1253.283447 
	C1740.248047,1226.713989 1740.248047,1199.954956 1740.248047,1172.319946 
	C1757.697510,1172.319946 1774.915649,1172.099609 1792.124878,1172.398315 
	C1803.390015,1172.593750 1814.710205,1172.982300 1825.876831,1174.342407 
	C1833.646851,1175.288818 1841.521484,1177.229736 1848.772583,1180.155762 
	C1860.197144,1184.765503 1866.105225,1194.499146 1867.849365,1206.300049 
	C1869.264526,1215.876343 1869.201538,1225.604492 1863.599365,1235.108887 
z"/>
<path fill="#FDFEFE" opacity="1.000000" stroke="none" 
	d="
M1837.179443,1115.830811 
	C1827.972656,1117.429443 1819.529419,1119.747925 1811.034180,1119.957275 
	C1788.744751,1120.506836 1766.432495,1120.145508 1744.129395,1120.110840 
	C1742.882568,1120.108887 1741.636108,1119.778687 1740.063965,1119.554810 
	C1740.063965,1096.312378 1740.063965,1073.487915 1740.063965,1049.974487 
	C1742.517456,1049.780884 1744.725342,1049.440186 1746.930298,1049.458130 
	C1771.544434,1049.658813 1796.161255,1049.750610 1820.770020,1050.241699 
	C1829.800171,1050.421875 1838.544067,1052.399292 1845.924072,1058.232300 
	C1860.842285,1070.023438 1862.497681,1097.215576 1845.443115,1110.739746 
	C1843.116455,1112.584961 1840.435913,1113.983887 1837.179443,1115.830811 
z"/>
<path fill="#F8FCFE" opacity="1.000000" stroke="none" 
	d="
M1788.296631,1397.994141 
	C1788.296753,1392.434570 1788.296753,1387.831177 1788.296753,1382.629761 
	C1798.650146,1380.592163 1808.496460,1381.150757 1818.049072,1383.291504 
	C1825.338501,1384.925293 1828.661133,1390.751587 1828.506226,1398.288696 
	C1828.352661,1405.759521 1825.629272,1410.555420 1818.077393,1412.048462 
	C1808.802124,1413.882202 1799.195068,1414.038330 1788.296509,1415.053223 
	C1788.296509,1408.676880 1788.296509,1403.813721 1788.296631,1397.994141 
z"/>
</svg>