<svg version="1.1" id="Layer_1" xmlns="http://www.w3.org/2000/svg" xmlns:xlink="http://www.w3.org/1999/xlink" x="0px" y="0px"
	 width="100%" viewBox="0 0 2000 630" enable-background="new 0 0 2000 630" xml:space="preserve">
<path fill="#000000" opacity="1.000000" stroke="none" 
	d="
M1554.000000,631.000000 
	C1036.000000,631.000000 518.500000,631.000000 1.000000,631.000000 
	C1.000000,421.000000 1.000000,211.000000 1.000000,1.000000 
	C667.666687,1.000000 1334.333374,1.000000 2001.000000,1.000000 
	C2001.000000,211.000000 2001.000000,421.000000 2001.000000,631.000000 
	C1852.166626,631.000000 1703.333374,631.000000 1554.000000,631.000000 
M546.331177,316.029510 
	C539.618347,312.248352 533.142944,307.923370 526.118347,304.856293 
	C520.393433,302.356689 519.872314,298.548889 519.899963,293.191986 
	C520.092346,255.860092 520.063538,218.526505 519.914307,181.194214 
	C519.897766,177.053101 519.076843,172.803696 517.945312,168.797623 
	C512.767273,150.465302 501.057404,137.598587 483.611084,130.416519 
	C476.578247,127.521339 468.807373,126.418938 461.319550,124.487022 
	C468.557434,85.059685 456.986115,51.968468 420.041168,32.083126 
	C389.272339,15.522035 357.618958,18.500601 330.289551,40.687820 
	C303.407104,62.512177 294.925812,91.863358 302.764587,126.116646 
	C299.010834,126.116646 295.176208,125.375252 291.752808,126.247627 
	C278.404053,129.649231 266.732758,135.742065 257.576385,146.692474 
	C248.100479,158.025040 243.117538,170.726364 243.052795,185.275040 
	C242.888870,222.107193 242.866928,258.941589 243.154190,295.772217 
	C243.192841,300.728546 241.170441,302.916046 237.365479,305.016266 
	C225.126526,311.771790 212.973663,318.686157 200.857864,325.661285 
	C184.556992,335.045746 168.496719,344.863495 152.007095,353.900238 
	C136.544479,362.374176 123.341789,372.609070 116.636124,389.707123 
	C112.110733,401.245911 111.713860,413.029480 114.130447,424.817505 
	C115.608002,432.024933 118.760002,438.889099 121.124588,445.803894 
	C88.351891,449.419312 54.445049,473.183777 48.406277,516.692810 
	C44.129318,547.508179 55.875374,577.566711 87.508423,597.696472 
	C102.637360,607.323792 119.835770,610.677490 137.577438,608.873840 
	C162.049072,606.385925 181.541672,594.456604 196.131409,575.081604 
	C199.884888,579.733887 203.083649,584.269165 206.850327,588.269653 
	C224.122009,606.613464 245.327805,612.122192 269.128265,605.042908 
	C278.159210,602.356750 286.390076,596.731079 294.718292,591.976868 
	C323.057770,575.799194 351.271912,559.401978 379.570160,543.151672 
	C380.528168,542.601501 382.193237,542.166870 382.992554,542.621338 
	C398.084290,551.202759 413.096893,559.923340 428.122253,568.621277 
	C446.765076,579.413208 465.316010,590.367920 484.076263,600.951660 
	C496.754547,608.104248 510.607422,609.679688 524.685059,606.838135 
	C533.148254,605.129822 541.604309,602.218689 548.102783,596.214417 
	C555.041992,589.802856 561.265381,582.616577 567.684021,575.891418 
	C603.443115,625.041626 678.670410,619.189087 707.561707,564.360291 
	C710.547852,577.184204 717.960388,586.663391 729.450378,592.751221 
	C742.708008,599.775757 757.042236,596.757935 771.020020,596.408752 
	C774.457825,596.322876 778.505432,593.266174 781.165283,594.333923 
	C790.808594,598.205078 800.664917,596.487610 810.430603,597.013550 
	C817.913452,597.416565 824.913818,596.014954 831.491455,592.261902 
	C832.729187,591.555603 834.909485,591.521973 836.242676,592.110962 
	C853.044006,599.534180 870.406006,599.866028 887.934387,595.919861 
	C895.614258,594.190979 902.851074,591.615234 910.653503,595.822449 
	C913.299561,597.249329 917.026550,596.918030 920.264648,596.955322 
	C930.913147,597.078125 941.563904,597.001526 952.213806,597.001526 
	C968.020996,597.001526 983.836243,597.286255 999.630798,596.839111 
	C1004.802185,596.692688 1009.912292,594.610168 1015.066833,593.488098 
	C1016.467896,593.183105 1018.162415,592.593628 1019.325745,593.081055 
	C1031.102417,598.014771 1043.440552,598.101318 1055.914062,598.093689 
	C1069.559692,598.085266 1082.204956,595.154602 1093.801392,587.829102 
	C1094.846436,587.168823 1097.139404,586.856995 1097.820068,587.491455 
	C1107.333862,596.358582 1118.900757,597.648743 1131.096802,597.076965 
	C1132.378784,597.016907 1133.961548,597.705750 1134.966919,598.561523 
	C1137.269775,600.521667 1139.242188,602.863708 1141.454224,604.938171 
	C1150.953003,613.845886 1162.858765,617.161560 1174.916626,614.662842 
	C1194.589966,610.585999 1209.446899,599.147949 1217.485474,580.027039 
	C1218.613403,577.344177 1219.977295,574.760498 1221.207642,572.181763 
	C1226.297119,582.264771 1233.453125,589.599915 1243.574097,594.021667 
	C1253.977295,598.566528 1264.962524,597.168945 1275.686646,596.776184 
	C1282.463623,596.527954 1289.154175,594.060730 1295.898315,592.660461 
	C1297.180298,592.394287 1298.798706,591.941467 1299.811279,592.458069 
	C1313.293335,599.336243 1327.496582,597.254578 1341.639038,596.052246 
	C1345.692871,595.707642 1349.983521,594.335083 1353.757324,595.204834 
	C1366.166626,598.065063 1378.568481,597.771362 1390.909180,595.890015 
	C1398.555542,594.724304 1405.237061,592.309265 1413.730225,595.431396 
	C1422.451538,598.637390 1432.825806,597.803650 1442.485718,597.909424 
	C1467.286499,598.181213 1486.614136,587.625488 1500.394531,567.542725 
	C1503.691040,569.072571 1506.744019,571.085327 1510.089722,571.909424 
	C1515.856079,573.329773 1521.794312,574.766357 1527.678711,574.846130 
	C1540.407837,575.018555 1553.147827,574.242920 1565.885742,574.131775 
	C1567.353760,574.119019 1569.102051,575.609680 1570.262085,576.836609 
	C1573.350586,580.103088 1575.947876,583.854919 1579.168091,586.971924 
	C1593.029663,600.388611 1610.568848,597.082825 1627.186768,596.655762 
	C1633.011597,596.506042 1638.468018,594.266541 1644.844116,595.682800 
	C1652.448975,597.372009 1660.587158,596.628784 1668.490723,597.013000 
	C1675.974121,597.376709 1682.927002,595.690491 1689.541870,592.182617 
	C1690.693604,591.571899 1692.599243,591.559143 1693.837891,592.059448 
	C1714.000977,600.202576 1734.223877,600.733704 1754.686279,593.150757 
	C1756.475586,592.487671 1758.861450,593.069824 1760.887451,593.481567 
	C1766.055298,594.531738 1771.139526,596.599731 1776.323120,596.840027 
	C1787.606201,597.363037 1798.930054,597.001526 1810.237305,597.001526 
	C1825.544556,597.001526 1840.854858,596.802612 1856.158203,597.049255 
	C1877.889038,597.399414 1897.292236,577.898010 1897.070190,556.103394 
	C1896.786621,528.273254 1897.231445,500.435394 1896.907471,472.606201 
	C1896.737549,458.012512 1889.298950,447.156860 1877.068481,439.610199 
	C1870.309570,435.439758 1862.953735,433.442719 1854.815552,433.915863 
	C1843.428955,434.577820 1832.009766,434.688660 1820.603149,434.987488 
	C1817.617065,435.065704 1814.620605,435.073090 1811.640137,434.909393 
	C1809.894043,434.813477 1808.172241,434.056366 1806.435547,434.041168 
	C1796.436401,433.953400 1786.429810,433.789490 1776.439209,434.095856 
	C1772.130005,434.228027 1767.557007,434.717224 1763.650513,436.351471 
	C1760.152344,437.814972 1757.389526,437.758514 1754.023560,436.578247 
	C1736.241699,430.343292 1718.263794,430.067963 1700.451538,436.133331 
	C1694.496216,438.161102 1689.661377,438.454895 1683.261353,436.381195 
	C1669.571045,431.945404 1655.197144,432.753265 1641.078613,435.923462 
	C1639.513672,436.274872 1637.726562,436.347687 1636.182739,435.972382 
	C1622.533447,432.653687 1608.576538,432.540131 1595.125732,435.322357 
	C1580.786011,438.288422 1570.974731,448.148193 1566.141968,462.110504 
	C1564.430298,467.055267 1564.163208,472.500061 1563.241333,477.689819 
	C1545.690796,479.407654 1527.691040,475.560425 1510.080200,480.156433 
	C1510.562256,462.218018 1508.413940,459.257782 1500.787598,448.861725 
	C1494.157959,439.824524 1484.397461,434.651581 1472.914551,434.075470 
	C1464.934814,433.675110 1456.819946,433.220856 1448.946777,434.219513 
	C1441.242798,435.196655 1433.974976,435.648956 1426.137817,434.328003 
	C1417.548584,432.880249 1408.526367,433.939056 1399.694214,434.037445 
	C1397.293457,434.064178 1394.868774,434.960999 1392.505249,434.784790 
	C1379.558228,433.819641 1366.629028,432.562866 1353.818237,435.996887 
	C1352.537109,436.340302 1351.109741,436.483765 1349.800903,436.318176 
	C1344.350708,435.628632 1338.931030,434.213806 1333.479736,434.106781 
	C1317.819214,433.799469 1302.139160,433.685211 1286.487793,434.172211 
	C1281.175049,434.337555 1275.944458,436.614960 1270.634888,437.729858 
	C1268.952148,438.083191 1266.845215,438.389008 1265.431152,437.697205 
	C1260.219238,435.147217 1254.917114,433.718750 1249.050171,433.938721 
	C1242.226440,434.194611 1235.350342,433.573761 1228.564575,434.140991 
	C1223.673584,434.549805 1218.450684,435.420258 1214.167847,437.623871 
	C1207.913208,440.842041 1202.368774,445.440735 1196.703247,449.326569 
	C1188.716431,440.573914 1179.063843,434.045532 1166.139526,434.017303 
	C1138.156616,433.956116 1110.151855,434.652802 1082.199341,433.728607 
	C1067.728027,433.250092 1053.526489,437.676086 1038.856201,434.313141 
	C1031.097290,432.534485 1022.594299,433.931274 1014.429260,434.042206 
	C1012.185791,434.072693 1009.928833,435.014404 1007.713257,434.893280 
	C991.824524,434.024445 975.920471,431.991852 960.174561,436.282959 
	C959.256836,436.533020 958.147766,436.129944 957.135925,435.977203 
	C952.837769,435.328674 948.557556,434.240753 944.243286,434.087311 
	C935.754150,433.785400 927.226440,433.645691 918.754333,434.130707 
	C913.674622,434.421509 908.675476,436.050415 903.628052,437.014740 
	C902.121277,437.302612 900.486938,437.783173 899.059509,437.478973 
	C892.634094,436.109650 886.306335,434.262604 879.861633,433.007477 
	C866.228760,430.352417 852.862000,432.044647 840.119324,437.165741 
	C835.611755,438.977264 831.920715,439.952515 827.830322,436.991760 
	C827.198730,436.534668 826.415161,436.185028 825.651978,436.027313 
	C811.555786,433.113953 797.450745,432.587952 783.336548,435.942871 
	C781.988708,436.263275 780.335876,437.032440 779.276428,436.566376 
	C768.790283,431.953461 757.775574,434.519348 747.014771,434.133759 
	C742.745972,433.980804 738.211670,434.727875 734.161926,436.121796 
	C718.467346,441.523926 706.266296,457.616760 706.967896,474.266693 
	C707.167419,479.002533 706.998413,483.753876 706.998413,489.734772 
	C691.791138,463.696503 670.125977,449.279541 641.370056,445.616608 
	C650.486206,431.042084 653.409851,415.252228 649.763184,398.794128 
	C646.407837,383.650635 638.387634,370.635529 625.199097,362.200317 
	C609.102966,351.905426 592.212219,342.854065 575.678711,333.241608 
	C566.092529,327.668274 556.533081,322.049011 546.331177,316.029510 
M908.500977,401.001648 
	C916.208069,409.469086 926.009766,412.969269 937.221985,412.991089 
	C956.387573,413.028351 975.558716,412.727631 994.716797,413.108765 
	C1005.419983,413.321716 1014.819763,410.546753 1022.945129,404.005707 
	C1030.502197,409.407440 1038.226929,413.195251 1047.700195,413.079987 
	C1068.529297,412.826508 1089.364136,413.075409 1110.195312,412.926056 
	C1113.538696,412.902069 1116.970215,412.206451 1120.198730,411.264923 
	C1137.948242,406.088745 1150.260620,389.356354 1150.053833,370.901123 
	C1149.824219,350.404785 1149.996460,329.903870 1150.011475,309.404968 
	C1150.012451,307.977203 1150.159546,306.549561 1150.245361,305.001373 
	C1167.967285,305.001373 1185.308228,305.512238 1202.599609,304.807312 
	C1212.759399,304.393097 1223.028076,302.814392 1232.915771,300.399506 
	C1250.557007,296.091003 1266.566284,287.920532 1281.491821,276.652649 
	C1282.066040,278.366547 1282.501221,279.835785 1283.045776,281.263336 
	C1286.808960,291.127502 1290.042480,301.240875 1294.497192,310.783569 
	C1302.063477,326.992188 1312.232666,341.624054 1324.347290,354.795013 
	C1338.954346,370.675537 1355.606201,384.030945 1374.683838,394.244385 
	C1397.660645,406.545197 1422.109985,415.051575 1448.031372,416.640167 
	C1469.965332,417.984436 1492.138672,418.343414 1513.992798,413.128662 
	C1537.027954,407.632080 1558.946411,399.439545 1578.648804,386.462219 
	C1591.515259,377.987427 1603.071655,367.523285 1614.975342,358.139191 
	C1620.658447,363.005188 1626.838257,368.695038 1633.442871,373.839447 
	C1640.062866,378.995789 1646.959106,383.834717 1653.991699,388.417664 
	C1679.330688,404.930450 1707.400024,414.488342 1737.299194,416.617188 
	C1757.249878,418.037628 1777.487793,418.264740 1797.526245,414.160645 
	C1823.392578,408.862946 1847.265503,399.087433 1869.432007,384.997223 
	C1884.917603,375.153748 1898.334229,362.790680 1909.741577,348.515991 
	C1917.325562,339.025879 1919.460083,327.804596 1917.265015,315.533295 
	C1915.315063,304.631500 1909.032593,296.658020 1901.685547,289.279297 
	C1891.384155,278.933746 1880.597900,269.070557 1870.315308,258.707092 
	C1863.270142,251.606461 1855.556885,246.303085 1845.394043,244.705460 
	C1832.105225,242.616425 1820.268799,245.050919 1810.177979,254.313599 
	C1804.471191,259.552094 1799.235840,265.478516 1792.924438,269.847382 
	C1780.196533,278.657867 1765.943726,281.946411 1750.430908,279.035706 
	C1735.141968,276.166992 1722.658813,269.020691 1715.131958,255.143799 
	C1709.680786,245.093369 1707.336548,234.236115 1708.855225,222.511658 
	C1709.977905,213.844482 1712.060669,205.620132 1717.074585,198.578064 
	C1728.509155,182.518219 1743.904663,175.139359 1764.023926,176.834167 
	C1781.688965,178.322250 1794.993286,186.995987 1806.026611,199.758209 
	C1811.844482,206.487915 1818.676880,211.673111 1826.933838,213.751892 
	C1843.234985,217.855789 1857.802368,213.623444 1869.845337,201.646759 
	C1882.489258,189.072556 1895.146851,176.510742 1907.658447,163.805481 
	C1919.841064,151.434250 1923.017334,130.881241 1915.010254,115.512695 
	C1906.454956,99.091972 1892.175293,87.914818 1877.853271,77.117989 
	C1863.944824,66.632858 1848.371948,58.863464 1832.106445,52.544613 
	C1815.482056,46.086338 1798.296021,41.658775 1780.580688,40.184849 
	C1768.824463,39.206722 1756.920532,40.070168 1745.083618,39.981998 
	C1726.502808,39.843594 1708.739746,44.165974 1691.430542,50.297565 
	C1667.941528,58.618240 1646.587646,70.783432 1627.972900,87.523361 
	C1623.613403,91.443550 1619.178589,95.279846 1614.866089,99.077560 
	C1572.339966,56.788033 1520.894653,37.160027 1461.778198,39.244492 
	C1402.453247,41.336308 1353.568848,66.269279 1316.241333,111.557617 
	C1309.349854,102.680542 1303.438110,93.411545 1295.876953,85.775787 
	C1287.783813,77.602737 1278.688232,70.122528 1269.052246,63.839752 
	C1249.449097,51.058472 1227.381226,44.428627 1204.089355,44.175289 
	C1152.098389,43.609802 1100.096680,44.050205 1048.099731,43.951698 
	C1038.572388,43.933647 1030.475220,47.290775 1022.867615,53.129906 
	C1014.462463,46.062077 1004.639282,43.627380 993.608826,43.878788 
	C974.619751,44.311592 955.611938,44.156010 936.615051,43.956844 
	C915.162170,43.731922 895.762207,63.160084 895.951477,84.626564 
	C896.158752,108.123482 895.998657,131.623642 895.998657,155.122391 
	C895.998657,156.707962 895.998657,158.293518 895.998657,159.661346 
	C878.925537,159.661346 862.519348,159.661346 846.001343,159.661346 
	C846.001343,134.334030 846.035645,109.343697 845.957275,84.353722 
	C845.947693,81.285843 845.602722,78.162575 844.958984,75.162437 
	C841.233337,57.799324 824.143066,43.782501 806.568848,43.951916 
	C785.905212,44.151104 765.237183,43.895241 744.573486,44.088741 
	C740.602600,44.125923 736.519958,44.919296 732.699219,46.065208 
	C716.728577,50.855080 704.828735,68.045792 704.872192,84.210190 
	C705.128906,179.704407 705.064392,275.199799 704.880676,370.694366 
	C704.865051,378.803986 706.381653,386.206055 710.530457,392.971771 
	C718.039551,405.217407 728.873108,412.658356 743.478638,412.909302 
	C764.471313,413.270050 785.475769,413.108032 806.472839,412.910248 
	C810.610291,412.871246 814.934753,412.232025 818.833435,410.886139 
	C834.527405,405.468262 846.461487,389.379883 846.088928,372.741852 
	C845.697388,355.251556 846.001343,337.745667 846.001343,320.246613 
	C846.001343,311.959320 846.001343,303.672058 846.001343,295.207794 
	C862.809509,295.207794 879.213745,295.207794 895.998657,295.207794 
	C895.998657,297.020905 895.998657,298.650513 895.998657,300.280090 
	C895.998657,324.112152 895.973999,347.944244 896.009338,371.776245 
	C896.026001,382.988007 899.529053,392.791199 908.500977,401.001648 
z"/>
<path fill="#FEFEFE" opacity="1.000000" stroke="none" 
	d="
M546.646362,316.239990 
	C556.533081,322.049011 566.092529,327.668274 575.678711,333.241608 
	C592.212219,342.854065 609.102966,351.905426 625.199097,362.200317 
	C638.387634,370.635529 646.407837,383.650635 649.763184,398.794128 
	C653.409851,415.252228 650.486206,431.042084 641.370056,445.616608 
	C670.125977,449.279541 691.791138,463.696503 706.998413,489.734772 
	C706.998413,483.753876 707.167419,479.002533 706.967896,474.266693 
	C706.266296,457.616760 718.467346,441.523926 734.161926,436.121796 
	C738.211670,434.727875 742.745972,433.980804 747.014771,434.133759 
	C757.775574,434.519348 768.790283,431.953461 779.276428,436.566376 
	C780.335876,437.032440 781.988708,436.263275 783.336548,435.942871 
	C797.450745,432.587952 811.555786,433.113953 825.651978,436.027313 
	C826.415161,436.185028 827.198730,436.534668 827.830322,436.991760 
	C831.920715,439.952515 835.611755,438.977264 840.119324,437.165741 
	C852.862000,432.044647 866.228760,430.352417 879.861633,433.007477 
	C886.306335,434.262604 892.634094,436.109650 899.059509,437.478973 
	C900.486938,437.783173 902.121277,437.302612 903.628052,437.014740 
	C908.675476,436.050415 913.674622,434.421509 918.754333,434.130707 
	C927.226440,433.645691 935.754150,433.785400 944.243286,434.087311 
	C948.557556,434.240753 952.837769,435.328674 957.135925,435.977203 
	C958.147766,436.129944 959.256836,436.533020 960.174561,436.282959 
	C975.920471,431.991852 991.824524,434.024445 1007.713257,434.893280 
	C1009.928833,435.014404 1012.185791,434.072693 1014.429260,434.042206 
	C1022.594299,433.931274 1031.097290,432.534485 1038.856201,434.313141 
	C1053.526489,437.676086 1067.728027,433.250092 1082.199341,433.728607 
	C1110.151855,434.652802 1138.156616,433.956116 1166.139526,434.017303 
	C1179.063843,434.045532 1188.716431,440.573914 1196.703247,449.326569 
	C1202.368774,445.440735 1207.913208,440.842041 1214.167847,437.623871 
	C1218.450684,435.420258 1223.673584,434.549805 1228.564575,434.140991 
	C1235.350342,433.573761 1242.226440,434.194611 1249.050171,433.938721 
	C1254.917114,433.718750 1260.219238,435.147217 1265.431152,437.697205 
	C1266.845215,438.389008 1268.952148,438.083191 1270.634888,437.729858 
	C1275.944458,436.614960 1281.175049,434.337555 1286.487793,434.172211 
	C1302.139160,433.685211 1317.819214,433.799469 1333.479736,434.106781 
	C1338.931030,434.213806 1344.350708,435.628632 1349.800903,436.318176 
	C1351.109741,436.483765 1352.537109,436.340302 1353.818237,435.996887 
	C1366.629028,432.562866 1379.558228,433.819641 1392.505249,434.784790 
	C1394.868774,434.960999 1397.293457,434.064178 1399.694214,434.037445 
	C1408.526367,433.939056 1417.548584,432.880249 1426.137817,434.328003 
	C1433.974976,435.648956 1441.242798,435.196655 1448.946777,434.219513 
	C1456.819946,433.220856 1464.934814,433.675110 1472.914551,434.075470 
	C1484.397461,434.651581 1494.157959,439.824524 1500.787598,448.861725 
	C1508.413940,459.257782 1510.562256,462.218018 1510.080200,480.156433 
	C1527.691040,475.560425 1545.690796,479.407654 1563.241333,477.689819 
	C1564.163208,472.500061 1564.430298,467.055267 1566.141968,462.110504 
	C1570.974731,448.148193 1580.786011,438.288422 1595.125732,435.322357 
	C1608.576538,432.540131 1622.533447,432.653687 1636.182739,435.972382 
	C1637.726562,436.347687 1639.513672,436.274872 1641.078613,435.923462 
	C1655.197144,432.753265 1669.571045,431.945404 1683.261353,436.381195 
	C1689.661377,438.454895 1694.496216,438.161102 1700.451538,436.133331 
	C1718.263794,430.067963 1736.241699,430.343292 1754.023560,436.578247 
	C1757.389526,437.758514 1760.152344,437.814972 1763.650513,436.351471 
	C1767.557007,434.717224 1772.130005,434.228027 1776.439209,434.095856 
	C1786.429810,433.789490 1796.436401,433.953400 1806.435547,434.041168 
	C1808.172241,434.056366 1809.894043,434.813477 1811.640137,434.909393 
	C1814.620605,435.073090 1817.617065,435.065704 1820.603149,434.987488 
	C1832.009766,434.688660 1843.428955,434.577820 1854.815552,433.915863 
	C1862.953735,433.442719 1870.309570,435.439758 1877.068481,439.610199 
	C1889.298950,447.156860 1896.737549,458.012512 1896.907471,472.606201 
	C1897.231445,500.435394 1896.786621,528.273254 1897.070190,556.103394 
	C1897.292236,577.898010 1877.889038,597.399414 1856.158203,597.049255 
	C1840.854858,596.802612 1825.544556,597.001526 1810.237305,597.001526 
	C1798.930054,597.001526 1787.606201,597.363037 1776.323120,596.840027 
	C1771.139526,596.599731 1766.055298,594.531738 1760.887451,593.481567 
	C1758.861450,593.069824 1756.475586,592.487671 1754.686279,593.150757 
	C1734.223877,600.733704 1714.000977,600.202576 1693.837891,592.059448 
	C1692.599243,591.559143 1690.693604,591.571899 1689.541870,592.182617 
	C1682.927002,595.690491 1675.974121,597.376709 1668.490723,597.013000 
	C1660.587158,596.628784 1652.448975,597.372009 1644.844116,595.682800 
	C1638.468018,594.266541 1633.011597,596.506042 1627.186768,596.655762 
	C1610.568848,597.082825 1593.029663,600.388611 1579.168091,586.971924 
	C1575.947876,583.854919 1573.350586,580.103088 1570.262085,576.836609 
	C1569.102051,575.609680 1567.353760,574.119019 1565.885742,574.131775 
	C1553.147827,574.242920 1540.407837,575.018555 1527.678711,574.846130 
	C1521.794312,574.766357 1515.856079,573.329773 1510.089722,571.909424 
	C1506.744019,571.085327 1503.691040,569.072571 1500.394531,567.542725 
	C1486.614136,587.625488 1467.286499,598.181213 1442.485718,597.909424 
	C1432.825806,597.803650 1422.451538,598.637390 1413.730225,595.431396 
	C1405.237061,592.309265 1398.555542,594.724304 1390.909180,595.890015 
	C1378.568481,597.771362 1366.166626,598.065063 1353.757324,595.204834 
	C1349.983521,594.335083 1345.692871,595.707642 1341.639038,596.052246 
	C1327.496582,597.254578 1313.293335,599.336243 1299.811279,592.458069 
	C1298.798706,591.941467 1297.180298,592.394287 1295.898315,592.660461 
	C1289.154175,594.060730 1282.463623,596.527954 1275.686646,596.776184 
	C1264.962524,597.168945 1253.977295,598.566528 1243.574097,594.021667 
	C1233.453125,589.599915 1226.297119,582.264771 1221.207642,572.181763 
	C1219.977295,574.760498 1218.613403,577.344177 1217.485474,580.027039 
	C1209.446899,599.147949 1194.589966,610.585999 1174.916626,614.662842 
	C1162.858765,617.161560 1150.953003,613.845886 1141.454224,604.938171 
	C1139.242188,602.863708 1137.269775,600.521667 1134.966919,598.561523 
	C1133.961548,597.705750 1132.378784,597.016907 1131.096802,597.076965 
	C1118.900757,597.648743 1107.333862,596.358582 1097.820068,587.491455 
	C1097.139404,586.856995 1094.846436,587.168823 1093.801392,587.829102 
	C1082.204956,595.154602 1069.559692,598.085266 1055.914062,598.093689 
	C1043.440552,598.101318 1031.102417,598.014771 1019.325745,593.081055 
	C1018.162415,592.593628 1016.467896,593.183105 1015.066833,593.488098 
	C1009.912292,594.610168 1004.802185,596.692688 999.630798,596.839111 
	C983.836243,597.286255 968.020996,597.001526 952.213806,597.001526 
	C941.563904,597.001526 930.913147,597.078125 920.264648,596.955322 
	C917.026550,596.918030 913.299561,597.249329 910.653503,595.822449 
	C902.851074,591.615234 895.614258,594.190979 887.934387,595.919861 
	C870.406006,599.866028 853.044006,599.534180 836.242676,592.110962 
	C834.909485,591.521973 832.729187,591.555603 831.491455,592.261902 
	C824.913818,596.014954 817.913452,597.416565 810.430603,597.013550 
	C800.664917,596.487610 790.808594,598.205078 781.165283,594.333923 
	C778.505432,593.266174 774.457825,596.322876 771.020020,596.408752 
	C757.042236,596.757935 742.708008,599.775757 729.450378,592.751221 
	C717.960388,586.663391 710.547852,577.184204 707.561707,564.360291 
	C678.670410,619.189087 603.443115,625.041626 567.684021,575.891418 
	C561.265381,582.616577 555.041992,589.802856 548.102783,596.214417 
	C541.604309,602.218689 533.148254,605.129822 524.685059,606.838135 
	C510.607422,609.679688 496.754547,608.104248 484.076263,600.951660 
	C465.316010,590.367920 446.765076,579.413208 428.122253,568.621277 
	C413.096893,559.923340 398.084290,551.202759 382.992554,542.621338 
	C382.193237,542.166870 380.528168,542.601501 379.570160,543.151672 
	C351.271912,559.401978 323.057770,575.799194 294.718292,591.976868 
	C286.390076,596.731079 278.159210,602.356750 269.128265,605.042908 
	C245.327805,612.122192 224.122009,606.613464 206.850327,588.269653 
	C203.083649,584.269165 199.884888,579.733887 196.131409,575.081604 
	C181.541672,594.456604 162.049072,606.385925 137.577438,608.873840 
	C119.835770,610.677490 102.637360,607.323792 87.508423,597.696472 
	C55.875374,577.566711 44.129318,547.508179 48.406277,516.692810 
	C54.445049,473.183777 88.351891,449.419312 121.124588,445.803894 
	C118.760002,438.889099 115.608002,432.024933 114.130447,424.817505 
	C111.713860,413.029480 112.110733,401.245911 116.636124,389.707123 
	C123.341789,372.609070 136.544479,362.374176 152.007095,353.900238 
	C168.496719,344.863495 184.556992,335.045746 200.857864,325.661285 
	C212.973663,318.686157 225.126526,311.771790 237.365479,305.016266 
	C241.170441,302.916046 243.192841,300.728546 243.154190,295.772217 
	C242.866928,258.941589 242.888870,222.107193 243.052795,185.275040 
	C243.117538,170.726364 248.100479,158.025040 257.576385,146.692474 
	C266.732758,135.742065 278.404053,129.649231 291.752808,126.247627 
	C295.176208,125.375252 299.010834,126.116646 302.764587,126.116646 
	C294.925812,91.863358 303.407104,62.512177 330.289551,40.687820 
	C357.618958,18.500601 389.272339,15.522035 420.041168,32.083126 
	C456.986115,51.968468 468.557434,85.059685 461.319550,124.487022 
	C468.807373,126.418938 476.578247,127.521339 483.611084,130.416519 
	C501.057404,137.598587 512.767273,150.465302 517.945312,168.797623 
	C519.076843,172.803696 519.897766,177.053101 519.914307,181.194214 
	C520.063538,218.526505 520.092346,255.860092 519.899963,293.191986 
	C519.872314,298.548889 520.393433,302.356689 526.118347,304.856293 
	C533.142944,307.923370 539.618347,312.248352 546.646362,316.239990 
M593.363159,526.760437 
	C593.525391,527.896973 593.767944,529.028503 593.837952,530.170715 
	C595.108765,550.897522 612.370361,567.442383 633.178101,567.855103 
	C649.723572,568.183350 664.978394,558.225159 671.315552,542.959351 
	C677.632385,527.742554 674.138489,510.321442 662.446350,498.736755 
	C650.585754,486.985168 633.035278,483.762848 617.705444,490.462952 
	C615.927612,491.239960 614.015686,491.710266 611.546814,491.933502 
	C556.414246,460.092346 501.290466,428.235901 446.122375,396.456390 
	C443.446716,394.915131 442.164368,393.698059 442.670227,390.051910 
	C446.537140,362.181244 431.261444,335.757660 405.215485,325.010132 
	C402.096466,323.723114 401.096527,322.262238 401.109375,318.878540 
	C401.251526,281.402313 401.216644,243.925308 401.191132,206.448547 
	C401.176025,184.298828 401.092194,162.149139 401.528900,139.551239 
	C402.607452,138.774246 403.680695,137.989777 404.765320,137.221390 
	C419.530365,126.761292 425.659912,108.787392 420.246277,91.818344 
	C414.875214,74.982750 399.589935,63.820976 381.875153,63.798615 
	C363.993286,63.776047 348.390259,75.178261 343.165009,92.086838 
	C337.917877,109.066246 344.201477,126.972000 358.993958,137.431259 
	C360.263245,138.328720 361.207367,139.686035 362.210815,141.784103 
	C362.210815,202.387283 362.210815,262.990479 362.210815,323.377625 
	C332.328003,334.034698 316.522430,363.252380 320.995544,390.472565 
	C321.571533,393.977661 319.831879,395.078033 317.384338,396.489685 
	C261.931274,428.473541 206.509445,460.511536 150.290817,492.529022 
	C148.930008,491.905182 147.570114,491.279327 146.208237,490.657806 
	C131.062088,483.746002 113.288528,486.846802 101.310951,498.489807 
	C89.412231,510.056183 85.832451,527.797852 92.291466,543.191345 
	C98.649040,558.343140 114.191208,568.433167 130.701996,567.826782 
	C151.975616,567.045532 169.944763,550.280823 170.782166,526.072449 
	C227.499023,493.347321 284.215881,460.622131 340.822357,427.960663 
	C364.572693,447.869995 397.739929,448.828278 422.823914,427.989288 
	C449.688080,443.502838 476.594574,459.075836 503.535461,474.589142 
	C533.355835,491.760529 563.207642,508.877319 593.363159,526.760437 
M440.148132,230.499985 
	C440.148163,267.984192 440.221436,305.468781 440.039642,342.952118 
	C440.020599,346.881622 441.338715,348.851288 444.613342,350.702576 
	C461.992554,360.527802 479.240784,370.584747 496.534698,380.560822 
	C524.204956,396.522552 551.864319,412.503052 579.552429,428.433624 
	C587.750732,433.150604 596.290710,432.546967 602.772766,426.973175 
	C613.627014,417.639771 611.685242,402.025604 598.585449,394.443634 
	C560.138733,372.191223 521.664307,349.986542 483.140472,327.868103 
	C480.212738,326.187164 479.039124,324.385834 479.050110,320.883118 
	C479.188599,276.735596 479.150452,232.587494 479.114349,188.439575 
	C479.112335,185.960754 479.090393,183.389435 478.470856,181.019821 
	C475.945038,171.359039 466.951599,165.640961 456.689178,166.923508 
	C447.404755,168.083832 440.284302,176.347702 440.186005,186.518539 
	C440.047546,200.844467 440.149200,215.172714 440.148132,230.499985 
M258.772308,385.259705 
	C278.667175,373.796936 298.519012,362.258209 318.498199,350.944366 
	C321.920013,349.006683 323.333710,346.933838 323.320770,342.829315 
	C323.158752,291.515747 323.215210,240.201462 323.210236,188.887375 
	C323.210083,187.222031 323.242554,185.549301 323.106812,183.892563 
	C322.388733,175.127960 314.967651,167.666367 306.229218,166.864273 
	C293.354156,165.682480 284.254486,174.388855 284.243958,188.070877 
	C284.209808,232.387573 284.186096,276.704437 284.315796,321.020782 
	C284.325989,324.501587 283.247955,326.396881 280.224701,328.003265 
	C273.763733,331.436279 267.510101,335.259308 261.169495,338.919037 
	C229.034668,357.466797 196.886978,375.992310 164.771423,394.573395 
	C155.070618,400.186035 151.383057,410.167206 155.334595,419.628510 
	C160.038437,430.891052 172.860153,434.829346 184.225647,428.311127 
	C208.906570,414.156464 233.526672,399.895782 258.772308,385.259705 
M392.892883,455.602173 
	C391.024841,454.511627 388.990051,453.628601 387.322510,452.288574 
	C383.516785,449.230408 380.274597,449.839539 376.165253,452.266296 
	C353.959106,465.380249 331.549469,478.149597 309.217590,491.050903 
	C286.886230,503.951904 264.534760,516.818481 242.251190,529.801514 
	C232.705750,535.362976 229.268677,545.659241 233.536102,555.049683 
	C238.523560,566.024597 251.079330,569.627136 262.267792,563.179871 
	C300.759979,540.999207 339.247314,518.809875 377.666992,496.504211 
	C380.606384,494.797638 382.757629,494.622345 385.773895,496.398346 
	C403.552368,506.866333 421.465271,517.106140 439.334961,527.419128 
	C460.086700,539.395386 480.809296,551.422607 501.607208,563.318176 
	C511.441437,568.942993 522.175171,566.771301 528.216736,558.210815 
	C535.168091,548.361267 531.920532,535.855286 520.628113,529.330322 
	C478.272675,504.856689 435.899719,480.413300 392.892883,455.602173 
M920.004944,477.648499 
	C920.004944,503.580444 920.004944,529.512390 920.004944,555.535156 
	C925.341125,555.535156 930.075317,555.535156 935.227478,555.535156 
	C935.227478,535.252991 935.227478,515.280640 935.227478,495.308197 
	C935.499268,495.275299 935.771118,495.242371 936.042908,495.209442 
	C941.132080,515.413818 946.221252,535.618164 951.316895,555.848511 
	C955.605225,555.848511 959.284424,555.601929 962.914124,555.919861 
	C966.338440,556.219727 967.385864,554.704041 968.128784,551.634155 
	C972.315857,534.333191 976.721375,517.085083 981.062317,499.821411 
	C981.409851,498.439178 981.831360,497.075623 982.218506,495.703369 
	C982.561584,495.808350 982.904724,495.913330 983.247803,496.018311 
	C983.247803,515.796326 983.247803,535.574341 983.247803,555.583008 
	C988.319885,555.583008 993.053772,555.583008 997.934814,555.583008 
	C997.934814,528.591309 997.934814,501.867096 997.934814,474.757263 
	C991.993103,474.757263 986.323059,475.152771 980.735168,474.644714 
	C975.274719,474.148285 973.064331,475.991058 971.793945,481.435791 
	C968.131165,497.133667 963.746887,512.663147 959.645996,528.258789 
	C959.366516,528.256165 959.087036,528.253479 958.807495,528.250854 
	C954.067261,510.498413 949.326965,492.746002 944.528320,474.774994 
	C936.860413,474.774994 929.545898,474.719940 922.235046,474.858215 
	C921.483826,474.872406 920.754456,476.042053 920.004944,477.648499 
M1811.948120,555.849060 
	C1816.090088,555.849060 1820.232056,555.849060 1824.658936,555.849060 
	C1829.824951,535.410828 1834.923340,515.239746 1840.021851,495.068634 
	C1840.371460,495.127930 1840.720947,495.187256 1841.070557,495.246552 
	C1841.070557,515.306458 1841.070557,535.366333 1841.070557,555.551025 
	C1846.186035,555.551025 1850.914795,555.551025 1855.729736,555.551025 
	C1855.729736,528.529785 1855.729736,501.809357 1855.729736,475.135498 
	C1847.377441,475.135498 1839.316772,475.135498 1831.328735,475.135498 
	C1826.600342,493.052429 1821.968994,510.601746 1817.337646,528.151062 
	C1812.008301,511.482269 1807.648071,494.964355 1803.107300,478.496216 
	C1802.718262,477.084564 1801.175903,474.980896 1800.093506,474.933624 
	C1792.828613,474.616119 1785.543091,474.768433 1778.066284,474.768433 
	C1778.066284,501.985016 1778.066284,528.691833 1778.066284,555.556274 
	C1783.077271,555.556274 1787.804565,555.556274 1792.968506,555.556274 
	C1792.968506,535.268494 1792.968506,515.268860 1792.968506,495.269257 
	C1794.156494,496.907806 1794.614746,498.623657 1795.046753,500.346069 
	C1799.373779,517.601074 1803.650635,534.869080 1808.106201,552.090759 
	C1808.471313,553.502197 1810.046021,554.600769 1811.948120,555.849060 
M1367.882202,479.583313 
	C1367.882202,495.445984 1367.882202,511.308655 1367.882202,528.573914 
	C1366.283447,526.103210 1365.473145,524.906677 1364.718262,523.676086 
	C1355.414185,508.506805 1346.151367,493.311890 1336.764404,478.194244 
	C1335.902100,476.805634 1334.334717,475.052612 1332.963135,474.929138 
	C1328.399414,474.518372 1323.775757,474.773743 1319.169922,474.773743 
	C1319.169922,502.096954 1319.169922,528.801514 1319.169922,555.491699 
	C1324.253296,555.491699 1328.980957,555.491699 1334.140869,555.491699 
	C1334.140869,538.293518 1334.140869,521.445312 1334.140869,503.432465 
	C1335.859985,506.089325 1336.944214,507.699860 1337.963379,509.350586 
	C1346.788452,523.644287 1355.558838,537.972229 1364.482178,552.204102 
	C1365.421021,553.701233 1367.153687,555.528748 1368.670288,555.680542 
	C1373.248291,556.138550 1377.901611,555.845825 1382.770264,555.845825 
	C1382.770264,528.658752 1382.770264,501.943268 1382.770264,474.764130 
	C1378.790527,474.764130 1374.990723,474.961670 1371.222168,474.703583 
	C1368.027954,474.484802 1367.594116,476.106262 1367.882202,479.583313 
M812.558167,505.500122 
	C812.558167,495.384460 812.558167,485.268829 812.558167,475.131592 
	C806.779236,475.131592 801.565918,475.131592 795.930420,475.131592 
	C795.930420,485.763794 795.930420,496.024689 795.930420,506.206055 
	C785.119446,506.206055 774.742737,506.206055 763.924011,506.206055 
	C763.924011,495.580933 763.924011,485.334625 763.924011,475.026672 
	C758.395203,475.026672 753.319580,475.026672 748.063477,475.026672 
	C748.063477,502.001068 748.063477,528.701233 748.063477,555.603149 
	C753.417358,555.603149 758.487915,555.603149 764.080322,555.603149 
	C764.080322,543.810730 764.080322,532.256897 764.080322,520.560181 
	C774.989502,520.560181 785.373291,520.560181 796.276611,520.560181 
	C796.276611,532.436646 796.276611,543.999084 796.276611,555.590637 
	C801.882751,555.590637 806.961975,555.590637 812.557922,555.590637 
	C812.557922,539.054626 812.557922,522.777405 812.558167,505.500122 
M1670.134766,484.524109 
	C1670.134766,481.407379 1670.134766,478.290649 1670.134766,474.990662 
	C1664.521606,474.990662 1659.450439,474.990662 1653.761597,474.990662 
	C1653.761597,485.575623 1653.761597,495.939026 1653.761597,506.411011 
	C1642.884399,506.411011 1632.627197,506.411011 1621.768311,506.411011 
	C1621.768311,495.794800 1621.768311,485.410400 1621.768311,475.000275 
	C1616.050659,475.000275 1610.939087,475.000275 1605.575806,475.000275 
	C1605.575806,501.959045 1605.575806,528.670959 1605.575806,555.513916 
	C1611.075195,555.513916 1616.285034,555.513916 1622.045776,555.513916 
	C1622.045776,543.634033 1622.045776,532.082947 1622.045776,520.506714 
	C1632.853638,520.506714 1643.104248,520.506714 1653.899902,520.506714 
	C1653.899902,532.316589 1653.899902,543.870361 1653.899902,555.590454 
	C1659.520874,555.590454 1664.590576,555.590454 1670.134766,555.590454 
	C1670.134766,532.058350 1670.134766,508.787231 1670.134766,484.524109 
M1067.177368,490.503723 
	C1067.128296,503.169220 1067.238403,515.837952 1066.979126,528.499146 
	C1066.776001,538.425232 1062.133179,542.867249 1052.510864,543.041626 
	C1042.037231,543.231323 1036.088135,538.530334 1035.814209,528.839417 
	C1035.357910,512.686584 1035.442261,496.518372 1035.303345,480.356598 
	C1035.288208,478.599060 1035.301270,476.841278 1035.301270,475.039551 
	C1029.519653,475.039551 1024.442993,475.039551 1019.995056,475.039551 
	C1019.995056,495.276093 1019.535339,515.236145 1020.181396,535.160400 
	C1020.524353,545.735413 1028.820801,554.100769 1039.490234,555.830017 
	C1045.999756,556.885071 1052.810547,557.282349 1059.359253,556.654236 
	C1074.355103,555.215942 1082.548706,546.508057 1083.040649,531.402100 
	C1083.636963,513.089905 1083.521851,494.754517 1083.687012,476.428955 
	C1083.691040,475.978790 1083.372070,475.525757 1083.236572,475.162231 
	C1077.890015,475.162231 1072.668213,475.162231 1067.177612,475.162231 
	C1067.177612,480.214355 1067.177612,484.859924 1067.177368,490.503723 
M1421.098877,514.494873 
	C1421.098877,501.387085 1421.098877,488.279327 1421.098877,475.008057 
	C1415.477783,475.008057 1410.404785,475.008057 1405.562500,475.008057 
	C1405.220215,475.376190 1405.006104,475.499573 1405.007568,475.619995 
	C1405.282349,495.583649 1405.124512,515.567871 1406.046875,535.502014 
	C1406.524048,545.813049 1414.324463,553.908142 1424.609619,555.675781 
	C1431.576660,556.873108 1438.937256,557.314575 1445.933228,556.491455 
	C1460.724365,554.751221 1468.335205,546.091431 1468.897705,531.078064 
	C1469.383545,518.101318 1469.220947,505.099854 1469.315308,492.109131 
	C1469.356079,486.494537 1469.322144,480.879364 1469.322144,475.142273 
	C1463.606445,475.142273 1458.420044,475.142273 1453.013550,475.142273 
	C1453.013550,479.168488 1453.023438,482.816101 1453.011719,486.463654 
	C1452.967163,500.454926 1453.109375,514.450500 1452.801270,528.436035 
	C1452.581177,538.428894 1447.920898,542.842407 1438.352417,543.050964 
	C1427.937866,543.278015 1422.250488,538.694397 1421.374756,528.973572 
	C1420.972412,524.507690 1421.172241,519.987488 1421.098877,514.494873 
M1690.020752,528.317505 
	C1695.380981,548.386292 1709.752930,558.618835 1730.222290,556.940247 
	C1745.134521,555.717346 1756.760254,545.136169 1758.852783,530.575562 
	C1753.893555,529.045349 1748.881226,527.498718 1743.802002,525.931396 
	C1742.775879,528.546326 1742.027222,530.921387 1740.941772,533.131104 
	C1737.907715,539.307983 1733.016479,542.868591 1725.992554,543.025391 
	C1718.513794,543.192322 1712.270264,540.271423 1709.261719,533.434387 
	C1704.093262,521.688904 1703.979370,509.415710 1708.966675,497.568787 
	C1712.056885,490.228027 1718.647827,487.177551 1726.394897,487.385223 
	C1733.856567,487.585327 1739.339355,491.172394 1742.119995,498.371277 
	C1742.458374,499.247559 1742.967529,500.057953 1743.379639,500.863953 
	C1746.284546,500.184509 1748.872437,499.600861 1751.448853,498.970490 
	C1753.972290,498.353180 1756.484131,497.688232 1759.016357,497.040283 
	C1756.122192,487.598602 1752.717041,482.723938 1746.337036,478.598297 
	C1727.180176,466.210632 1699.884521,475.137756 1691.932739,496.485443 
	C1688.175049,506.573303 1688.028320,516.976074 1690.020752,528.317505 
M860.967224,541.924500 
	C857.705566,538.977051 853.057251,536.640625 851.439392,532.968872 
	C846.353455,521.426392 846.226990,509.243652 851.244629,497.561584 
	C854.382996,490.254761 860.940186,487.164856 868.709229,487.381866 
	C876.186218,487.590698 881.656311,491.192078 884.456116,498.378662 
	C884.793701,499.245239 885.302307,500.045197 885.752563,500.916687 
	C891.108276,499.589325 896.169495,498.334930 901.307190,497.061615 
	C898.651245,486.848633 893.112549,479.815460 884.031311,476.166351 
	C865.002441,468.520081 838.741699,475.193115 832.837524,501.562103 
	C831.438721,507.809509 830.900757,514.475037 831.311096,520.861938 
	C832.832886,544.550964 849.433899,558.833801 872.520081,556.937622 
	C887.467102,555.709900 899.552856,544.665283 901.048889,530.541931 
	C896.116272,529.023743 891.118774,527.485596 886.156677,525.958313 
	C880.178223,541.083313 873.851318,545.192993 860.967224,541.924500 
M1231.894897,479.375793 
	C1239.566406,500.815094 1247.253052,522.249023 1254.903564,543.695740 
	C1259.259888,555.907410 1259.236328,555.740601 1272.153809,555.962097 
	C1275.919189,556.026611 1277.203369,554.589355 1278.349365,551.318848 
	C1286.483887,528.104248 1294.831909,504.964478 1303.109253,481.799988 
	C1303.873169,479.661987 1304.619751,477.517761 1305.593872,474.753601 
	C1301.855713,474.753601 1298.822998,475.133881 1295.923340,474.674530 
	C1289.858521,473.713898 1287.457886,476.198547 1285.705566,482.032928 
	C1280.512939,499.321381 1274.490967,516.360718 1268.557129,534.207947 
	C1267.807373,532.255371 1267.299072,531.043518 1266.872314,529.803589 
	C1260.976318,512.672729 1255.133911,495.523071 1249.125610,478.431763 
	C1248.626221,477.011078 1247.098145,475.026123 1245.918213,474.932007 
	C1240.981812,474.538300 1235.995728,474.766022 1230.658203,474.766022 
	C1231.063721,476.375305 1231.340576,477.473663 1231.894897,479.375793 
M1140.010376,554.170593 
	C1140.010376,532.401794 1140.010376,510.632965 1140.010376,488.322418 
	C1148.159668,488.322418 1155.892090,488.322418 1163.737305,488.322418 
	C1163.737305,483.544434 1163.737305,479.315460 1163.737305,475.182983 
	C1142.252075,475.182983 1121.062378,475.182983 1100.011353,475.182983 
	C1100.011353,479.704559 1100.011353,483.802460 1100.011353,488.478088 
	C1108.028198,488.478088 1115.754272,488.478088 1124.037598,488.478088 
	C1124.037598,511.256836 1124.037598,533.446899 1124.037598,556.201904 
	C1129.706299,555.803284 1134.763184,555.447693 1140.010376,554.170593 
M1536.517700,518.732300 
	C1532.900635,518.732300 1529.283569,518.732300 1525.514160,518.732300 
	C1525.514160,524.104736 1525.514160,528.973938 1525.514160,533.770508 
	C1535.756348,533.770508 1545.645752,533.770508 1555.606934,533.770508 
	C1555.606934,528.683350 1555.606934,523.941711 1555.606934,518.731995 
	C1549.405762,518.731995 1543.458252,518.731995 1536.517700,518.732300 
M1181.480103,555.888794 
	C1181.480103,550.790405 1181.480103,545.691956 1181.480103,540.450317 
	C1176.224609,540.450317 1171.331421,540.450317 1166.301392,540.450317 
	C1166.301392,545.642517 1166.301392,550.537781 1166.301392,555.625061 
	C1168.773560,555.821289 1170.994507,555.997620 1173.129395,556.167114 
	C1173.737915,562.633362 1169.674927,565.403015 1164.861450,567.708618 
	C1165.947876,569.855957 1166.895264,571.728455 1167.935181,573.783630 
	C1176.175903,570.697876 1180.890259,565.406982 1181.480103,555.888794 
z"/>
<path fill="#FEFEFF" opacity="1.000000" stroke="none" 
	d="
M908.249268,400.749939 
	C899.529053,392.791199 896.026001,382.988007 896.009338,371.776245 
	C895.973999,347.944244 895.998657,324.112152 895.998657,300.280090 
	C895.998657,298.650513 895.998657,297.020905 895.998657,295.207794 
	C879.213745,295.207794 862.809509,295.207794 846.001343,295.207794 
	C846.001343,303.672058 846.001343,311.959320 846.001343,320.246613 
	C846.001343,337.745667 845.697388,355.251556 846.088928,372.741852 
	C846.461487,389.379883 834.527405,405.468262 818.833435,410.886139 
	C814.934753,412.232025 810.610291,412.871246 806.472839,412.910248 
	C785.475769,413.108032 764.471313,413.270050 743.478638,412.909302 
	C728.873108,412.658356 718.039551,405.217407 710.530457,392.971771 
	C706.381653,386.206055 704.865051,378.803986 704.880676,370.694366 
	C705.064392,275.199799 705.128906,179.704407 704.872192,84.210190 
	C704.828735,68.045792 716.728577,50.855080 732.699219,46.065208 
	C736.519958,44.919296 740.602600,44.125923 744.573486,44.088741 
	C765.237183,43.895241 785.905212,44.151104 806.568848,43.951916 
	C824.143066,43.782501 841.233337,57.799324 844.958984,75.162437 
	C845.602722,78.162575 845.947693,81.285843 845.957275,84.353722 
	C846.035645,109.343697 846.001343,134.334030 846.001343,159.661346 
	C862.519348,159.661346 878.925537,159.661346 895.998657,159.661346 
	C895.998657,158.293518 895.998657,156.707962 895.998657,155.122391 
	C895.998657,131.623642 896.158752,108.123482 895.951477,84.626564 
	C895.762207,63.160084 915.162170,43.731922 936.615051,43.956844 
	C955.611938,44.156010 974.619751,44.311592 993.608826,43.878788 
	C1004.639282,43.627380 1014.462463,46.062077 1022.867615,53.129906 
	C1030.475220,47.290775 1038.572388,43.933647 1048.099731,43.951698 
	C1100.096680,44.050205 1152.098389,43.609802 1204.089355,44.175289 
	C1227.381226,44.428627 1249.449097,51.058472 1269.052246,63.839752 
	C1278.688232,70.122528 1287.783813,77.602737 1295.876953,85.775787 
	C1303.438110,93.411545 1309.349854,102.680542 1316.241333,111.557617 
	C1353.568848,66.269279 1402.453247,41.336308 1461.778198,39.244492 
	C1520.894653,37.160027 1572.339966,56.788033 1614.866089,99.077560 
	C1619.178589,95.279846 1623.613403,91.443550 1627.972900,87.523361 
	C1646.587646,70.783432 1667.941528,58.618240 1691.430542,50.297565 
	C1708.739746,44.165974 1726.502808,39.843594 1745.083618,39.981998 
	C1756.920532,40.070168 1768.824463,39.206722 1780.580688,40.184849 
	C1798.296021,41.658775 1815.482056,46.086338 1832.106445,52.544613 
	C1848.371948,58.863464 1863.944824,66.632858 1877.853271,77.117989 
	C1892.175293,87.914818 1906.454956,99.091972 1915.010254,115.512695 
	C1923.017334,130.881241 1919.841064,151.434250 1907.658447,163.805481 
	C1895.146851,176.510742 1882.489258,189.072556 1869.845337,201.646759 
	C1857.802368,213.623444 1843.234985,217.855789 1826.933838,213.751892 
	C1818.676880,211.673111 1811.844482,206.487915 1806.026611,199.758209 
	C1794.993286,186.995987 1781.688965,178.322250 1764.023926,176.834167 
	C1743.904663,175.139359 1728.509155,182.518219 1717.074585,198.578064 
	C1712.060669,205.620132 1709.977905,213.844482 1708.855225,222.511658 
	C1707.336548,234.236115 1709.680786,245.093369 1715.131958,255.143799 
	C1722.658813,269.020691 1735.141968,276.166992 1750.430908,279.035706 
	C1765.943726,281.946411 1780.196533,278.657867 1792.924438,269.847382 
	C1799.235840,265.478516 1804.471191,259.552094 1810.177979,254.313599 
	C1820.268799,245.050919 1832.105225,242.616425 1845.394043,244.705460 
	C1855.556885,246.303085 1863.270142,251.606461 1870.315308,258.707092 
	C1880.597900,269.070557 1891.384155,278.933746 1901.685547,289.279297 
	C1909.032593,296.658020 1915.315063,304.631500 1917.265015,315.533295 
	C1919.460083,327.804596 1917.325562,339.025879 1909.741577,348.515991 
	C1898.334229,362.790680 1884.917603,375.153748 1869.432007,384.997223 
	C1847.265503,399.087433 1823.392578,408.862946 1797.526245,414.160645 
	C1777.487793,418.264740 1757.249878,418.037628 1737.299194,416.617188 
	C1707.400024,414.488342 1679.330688,404.930450 1653.991699,388.417664 
	C1646.959106,383.834717 1640.062866,378.995789 1633.442871,373.839447 
	C1626.838257,368.695038 1620.658447,363.005188 1614.975342,358.139191 
	C1603.071655,367.523285 1591.515259,377.987427 1578.648804,386.462219 
	C1558.946411,399.439545 1537.027954,407.632080 1513.992798,413.128662 
	C1492.138672,418.343414 1469.965332,417.984436 1448.031372,416.640167 
	C1422.109985,415.051575 1397.660645,406.545197 1374.683838,394.244385 
	C1355.606201,384.030945 1338.954346,370.675537 1324.347290,354.795013 
	C1312.232666,341.624054 1302.063477,326.992188 1294.497192,310.783569 
	C1290.042480,301.240875 1286.808960,291.127502 1283.045776,281.263336 
	C1282.501221,279.835785 1282.066040,278.366547 1281.491821,276.652649 
	C1266.566284,287.920532 1250.557007,296.091003 1232.915771,300.399506 
	C1223.028076,302.814392 1212.759399,304.393097 1202.599609,304.807312 
	C1185.308228,305.512238 1167.967285,305.001373 1150.245361,305.001373 
	C1150.159546,306.549561 1150.012451,307.977203 1150.011475,309.404968 
	C1149.996460,329.903870 1149.824219,350.404785 1150.053833,370.901123 
	C1150.260620,389.356354 1137.948242,406.088745 1120.198730,411.264923 
	C1116.970215,412.206451 1113.538696,412.902069 1110.195312,412.926056 
	C1089.364136,413.075409 1068.529297,412.826508 1047.700195,413.079987 
	C1038.226929,413.195251 1030.502197,409.407440 1022.945129,404.005707 
	C1014.819763,410.546753 1005.419983,413.321716 994.716797,413.108765 
	C975.558716,412.727631 956.387573,413.028351 937.221985,412.991089 
	C926.009766,412.969269 916.208069,409.469086 908.249268,400.749939 
M794.480469,84.974854 
	C778.362671,84.974854 762.244873,84.974854 746.151245,84.974854 
	C746.151245,180.991730 746.151245,276.521515 746.151245,371.902222 
	C765.973145,371.902222 785.396729,371.902222 805.261230,371.902222 
	C805.261230,332.703979 805.261230,293.803680 805.261230,254.790466 
	C849.443054,254.790466 893.178833,254.790466 937.380127,254.790466 
	C937.380127,294.027954 937.380127,332.953033 937.380127,371.895660 
	C957.425415,371.895660 977.002808,371.895660 996.637939,371.895660 
	C996.637939,276.177155 996.637939,180.765808 996.637939,85.255280 
	C976.803284,85.255280 957.236389,85.255280 937.228271,85.255280 
	C937.228271,123.789482 937.228271,162.046555 937.228271,200.531158 
	C893.054016,200.531158 849.322876,200.531158 805.009399,200.531158 
	C805.009399,161.895279 805.009399,123.525551 805.009399,84.974854 
	C801.442505,84.974854 798.456909,84.974854 794.480469,84.974854 
M1048.974365,161.500000 
	C1048.974365,231.602890 1048.974365,301.705780 1048.974365,371.924316 
	C1069.005493,371.924316 1088.568359,371.924316 1108.560303,371.924316 
	C1108.560303,335.899536 1108.560303,300.150665 1108.560303,263.957489 
	C1110.773315,263.957489 1112.573120,263.957520 1114.373047,263.957458 
	C1140.367432,263.956940 1166.365601,264.205353 1192.354370,263.820831 
	C1201.450684,263.686249 1210.773926,263.006104 1219.563599,260.834381 
	C1253.730225,252.392532 1277.972412,232.182938 1286.294922,197.274506 
	C1294.483032,162.929947 1286.651733,132.029678 1259.464233,107.868889 
	C1241.206055,91.643311 1219.083008,85.126640 1195.015503,85.042961 
	C1147.526245,84.877853 1100.036133,84.979500 1052.546387,84.986420 
	C1051.440674,84.986580 1050.334961,85.171494 1048.974365,85.292984 
	C1048.974365,110.560524 1048.974365,135.530258 1048.974365,161.500000 
M1625.384155,302.100983 
	C1684.320435,401.293701 1821.233276,393.537537 1875.466431,324.427795 
	C1862.741455,311.315521 1850.143799,298.334503 1837.505615,285.311584 
	C1836.386475,286.529388 1835.285522,287.779266 1834.130493,288.976868 
	C1808.483887,315.571472 1777.299072,326.271088 1741.048462,319.436310 
	C1699.273682,311.559998 1671.587769,280.417267 1667.536621,236.720535 
	C1663.413452,192.246246 1688.440308,150.507919 1733.690063,138.573410 
	C1772.262085,128.400192 1805.670654,139.336365 1833.187134,168.186157 
	C1834.954956,170.039566 1836.628174,171.983307 1838.344727,173.884277 
	C1851.676392,160.187317 1864.645508,146.862869 1879.115967,131.995850 
	C1874.382690,127.929558 1869.279663,123.396797 1864.021362,119.052155 
	C1822.997559,85.155876 1775.921387,72.940895 1724.270386,84.249039 
	C1617.556030,107.612389 1578.641724,219.551529 1625.384155,302.100983 
M1565.084839,300.414703 
	C1560.083618,295.110870 1555.082397,289.807037 1550.031006,284.449951 
	C1506.900391,334.236938 1439.431763,329.425049 1404.827393,294.529877 
	C1370.254517,259.666473 1369.529419,199.039474 1403.815918,163.082916 
	C1420.414429,145.676010 1441.036255,136.329697 1464.994507,135.221100 
	C1499.631470,133.618378 1527.657715,147.299332 1549.847778,174.049850 
	C1563.129517,160.393387 1576.098755,147.058243 1589.643433,133.131393 
	C1584.039673,127.712753 1578.453857,121.193214 1571.799683,116.057816 
	C1527.381592,81.777420 1477.505493,71.288963 1423.940552,87.368217 
	C1368.604614,103.979103 1332.159668,141.213837 1320.639771,198.447983 
	C1309.257935,254.994537 1325.857788,303.879883 1370.427124,341.364105 
	C1406.105713,371.370911 1448.294067,381.034790 1493.954346,374.518555 
	C1529.452271,369.452637 1560.231812,354.217773 1584.802368,327.518005 
	C1585.990967,326.226410 1587.036621,324.803131 1587.936401,323.701263 
	C1580.280518,315.895508 1572.933350,308.404480 1565.084839,300.414703 
M1548.555786,215.001404 
	C1537.934448,214.731705 1528.565796,211.497604 1521.078613,203.609253 
	C1517.004028,199.316391 1513.067505,194.828857 1508.578003,191.005432 
	C1495.715942,180.051712 1480.991577,174.745377 1463.859253,176.964951 
	C1447.692261,179.059479 1435.157959,186.710114 1427.073853,200.901596 
	C1420.515503,212.414825 1418.734131,224.790833 1420.877441,238.006531 
	C1422.744995,249.521759 1427.332275,259.489044 1436.132202,266.909149 
	C1451.820312,280.137390 1469.849243,283.100952 1489.386597,277.157990 
	C1501.197388,273.565399 1510.092041,265.869507 1518.541016,257.165680 
	C1526.924927,248.528809 1537.153931,243.077225 1549.776978,244.021301 
	C1554.750610,244.393280 1559.705200,245.019440 1564.824829,245.545944 
	C1564.824829,234.635803 1564.824829,223.521591 1564.824829,213.065994 
	C1559.742432,213.707840 1554.621216,214.354614 1548.555786,215.001404 
z"/>
<path fill="#090CA1" opacity="1.000000" stroke="none" 
	d="
M151.081726,492.539368 
	C206.509445,460.511536 261.931274,428.473541 317.384338,396.489685 
	C319.831879,395.078033 321.571533,393.977661 320.995544,390.472565 
	C316.522430,363.252380 332.328003,334.034698 362.210815,323.377625 
	C362.210815,262.990479 362.210815,202.387283 362.543579,141.232925 
	C375.690277,145.652359 388.426758,146.292725 401.039307,139.999435 
	C401.092194,162.149139 401.176025,184.298828 401.191132,206.448547 
	C401.216644,243.925308 401.251526,281.402313 401.109375,318.878540 
	C401.096527,322.262238 402.096466,323.723114 405.215485,325.010132 
	C431.261444,335.757660 446.537140,362.181244 442.670227,390.051910 
	C442.164368,393.698059 443.446716,394.915131 446.122375,396.456390 
	C501.290466,428.235901 556.414246,460.092346 611.725403,492.422974 
	C604.072449,499.543762 597.214905,506.865570 594.827271,517.298828 
	C594.165649,520.189636 593.635986,523.110657 593.045776,526.017822 
	C563.207642,508.877319 533.355835,491.760529 503.535461,474.589142 
	C476.594574,459.075836 449.688080,443.502838 422.823914,427.989288 
	C397.739929,448.828278 364.572693,447.869995 340.822357,427.960663 
	C284.215881,460.622131 227.499023,493.347321 170.382507,525.724609 
	C169.742752,523.413086 169.612930,521.428467 169.244522,519.489197 
	C167.046478,507.918915 160.135925,499.501495 151.081726,492.539368 
M421.399963,356.178223 
	C410.077515,340.000977 394.678741,332.754028 374.969635,335.100555 
	C349.290222,338.157867 331.187653,363.075867 335.183746,389.784180 
	C338.906799,414.667480 364.804993,433.092346 389.467834,428.403748 
	C423.180725,421.994598 439.038055,386.910309 421.399963,356.178223 
z"/>
<path fill="#2081C1" opacity="1.000000" stroke="none" 
	d="
M440.148193,229.999969 
	C440.149200,215.172714 440.047546,200.844467 440.186005,186.518539 
	C440.284302,176.347702 447.404755,168.083832 456.689178,166.923508 
	C466.951599,165.640961 475.945038,171.359039 478.470856,181.019821 
	C479.090393,183.389435 479.112335,185.960754 479.114349,188.439575 
	C479.150452,232.587494 479.188599,276.735596 479.050110,320.883118 
	C479.039124,324.385834 480.212738,326.187164 483.140472,327.868103 
	C521.664307,349.986542 560.138733,372.191223 598.585449,394.443634 
	C611.685242,402.025604 613.627014,417.639771 602.772766,426.973175 
	C596.290710,432.546967 587.750732,433.150604 579.552429,428.433624 
	C551.864319,412.503052 524.204956,396.522552 496.534698,380.560822 
	C479.240784,370.584747 461.992554,360.527802 444.613342,350.702576 
	C441.338715,348.851288 440.020599,346.881622 440.039642,342.952118 
	C440.221436,305.468781 440.148163,267.984192 440.148193,229.999969 
z"/>
<path fill="#2081C1" opacity="1.000000" stroke="none" 
	d="
M258.471985,385.469055 
	C233.526672,399.895782 208.906570,414.156464 184.225647,428.311127 
	C172.860153,434.829346 160.038437,430.891052 155.334595,419.628510 
	C151.383057,410.167206 155.070618,400.186035 164.771423,394.573395 
	C196.886978,375.992310 229.034668,357.466797 261.169495,338.919037 
	C267.510101,335.259308 273.763733,331.436279 280.224701,328.003265 
	C283.247955,326.396881 284.325989,324.501587 284.315796,321.020782 
	C284.186096,276.704437 284.209808,232.387573 284.243958,188.070877 
	C284.254486,174.388855 293.354156,165.682480 306.229218,166.864273 
	C314.967651,167.666367 322.388733,175.127960 323.106812,183.892563 
	C323.242554,185.549301 323.210083,187.222031 323.210236,188.887375 
	C323.215210,240.201462 323.158752,291.515747 323.320770,342.829315 
	C323.333710,346.933838 321.920013,349.006683 318.498199,350.944366 
	C298.519012,362.258209 278.667175,373.796936 258.471985,385.469055 
z"/>
<path fill="#2081C1" opacity="1.000000" stroke="none" 
	d="
M393.213104,455.780396 
	C435.899719,480.413300 478.272675,504.856689 520.628113,529.330322 
	C531.920532,535.855286 535.168091,548.361267 528.216736,558.210815 
	C522.175171,566.771301 511.441437,568.942993 501.607208,563.318176 
	C480.809296,551.422607 460.086700,539.395386 439.334961,527.419128 
	C421.465271,517.106140 403.552368,506.866333 385.773895,496.398346 
	C382.757629,494.622345 380.606384,494.797638 377.666992,496.504211 
	C339.247314,518.809875 300.759979,540.999207 262.267792,563.179871 
	C251.079330,569.627136 238.523560,566.024597 233.536102,555.049683 
	C229.268677,545.659241 232.705750,535.362976 242.251190,529.801514 
	C264.534760,516.818481 286.886230,503.951904 309.217590,491.050903 
	C331.549469,478.149597 353.959106,465.380249 376.165253,452.266296 
	C380.274597,449.839539 383.516785,449.230408 387.322510,452.288574 
	C388.990051,453.628601 391.024841,454.511627 393.213104,455.780396 
z"/>
<path fill="#4A4E50" opacity="1.000000" stroke="none" 
	d="
M920.009949,477.162048 
	C920.754456,476.042053 921.483826,474.872406 922.235046,474.858215 
	C929.545898,474.719940 936.860413,474.774994 944.528320,474.774994 
	C949.326965,492.746002 954.067261,510.498413 958.807495,528.250854 
	C959.087036,528.253479 959.366516,528.256165 959.645996,528.258789 
	C963.746887,512.663147 968.131165,497.133667 971.793945,481.435791 
	C973.064331,475.991058 975.274719,474.148285 980.735168,474.644714 
	C986.323059,475.152771 991.993103,474.757263 997.934814,474.757263 
	C997.934814,501.867096 997.934814,528.591309 997.934814,555.583008 
	C993.053772,555.583008 988.319885,555.583008 983.247803,555.583008 
	C983.247803,535.574341 983.247803,515.796326 983.247803,496.018311 
	C982.904724,495.913330 982.561584,495.808350 982.218506,495.703369 
	C981.831360,497.075623 981.409851,498.439178 981.062317,499.821411 
	C976.721375,517.085083 972.315857,534.333191 968.128784,551.634155 
	C967.385864,554.704041 966.338440,556.219727 962.914124,555.919861 
	C959.284424,555.601929 955.605225,555.848511 951.316895,555.848511 
	C946.221252,535.618164 941.132080,515.413818 936.042908,495.209442 
	C935.771118,495.242371 935.499268,495.275299 935.227478,495.308197 
	C935.227478,515.280640 935.227478,535.252991 935.227478,555.535156 
	C930.075317,555.535156 925.341125,555.535156 920.004944,555.535156 
	C920.004944,529.512390 920.004944,503.580444 920.009949,477.162048 
z"/>
<path fill="#4A4E50" opacity="1.000000" stroke="none" 
	d="
M1811.503418,555.846924 
	C1810.046021,554.600769 1808.471313,553.502197 1808.106201,552.090759 
	C1803.650635,534.869080 1799.373779,517.601074 1795.046753,500.346069 
	C1794.614746,498.623657 1794.156494,496.907806 1792.968506,495.269257 
	C1792.968506,515.268860 1792.968506,535.268494 1792.968506,555.556274 
	C1787.804565,555.556274 1783.077271,555.556274 1778.066284,555.556274 
	C1778.066284,528.691833 1778.066284,501.985016 1778.066284,474.768433 
	C1785.543091,474.768433 1792.828613,474.616119 1800.093506,474.933624 
	C1801.175903,474.980896 1802.718262,477.084564 1803.107300,478.496216 
	C1807.648071,494.964355 1812.008301,511.482269 1817.337646,528.151062 
	C1821.968994,510.601746 1826.600342,493.052429 1831.328735,475.135498 
	C1839.316772,475.135498 1847.377441,475.135498 1855.729736,475.135498 
	C1855.729736,501.809357 1855.729736,528.529785 1855.729736,555.551025 
	C1850.914795,555.551025 1846.186035,555.551025 1841.070557,555.551025 
	C1841.070557,535.366333 1841.070557,515.306458 1841.070557,495.246552 
	C1840.720947,495.187256 1840.371460,495.127930 1840.021851,495.068634 
	C1834.923340,515.239746 1829.824951,535.410828 1824.658936,555.849060 
	C1820.232056,555.849060 1816.090088,555.849060 1811.503418,555.846924 
z"/>
<path fill="#494D4F" opacity="1.000000" stroke="none" 
	d="
M1367.882568,479.092957 
	C1367.594116,476.106262 1368.027954,474.484802 1371.222168,474.703583 
	C1374.990723,474.961670 1378.790527,474.764130 1382.770264,474.764130 
	C1382.770264,501.943268 1382.770264,528.658752 1382.770264,555.845825 
	C1377.901611,555.845825 1373.248291,556.138550 1368.670288,555.680542 
	C1367.153687,555.528748 1365.421021,553.701233 1364.482178,552.204102 
	C1355.558838,537.972229 1346.788452,523.644287 1337.963379,509.350586 
	C1336.944214,507.699860 1335.859985,506.089325 1334.140869,503.432465 
	C1334.140869,521.445312 1334.140869,538.293518 1334.140869,555.491699 
	C1328.980957,555.491699 1324.253296,555.491699 1319.169922,555.491699 
	C1319.169922,528.801514 1319.169922,502.096954 1319.169922,474.773743 
	C1323.775757,474.773743 1328.399414,474.518372 1332.963135,474.929138 
	C1334.334717,475.052612 1335.902100,476.805634 1336.764404,478.194244 
	C1346.151367,493.311890 1355.414185,508.506805 1364.718262,523.676086 
	C1365.473145,524.906677 1366.283447,526.103210 1367.882202,528.573914 
	C1367.882202,511.308655 1367.882202,495.445984 1367.882568,479.092957 
z"/>
<path fill="#4B4F51" opacity="1.000000" stroke="none" 
	d="
M812.558044,506.000122 
	C812.557922,522.777405 812.557922,539.054626 812.557922,555.590637 
	C806.961975,555.590637 801.882751,555.590637 796.276611,555.590637 
	C796.276611,543.999084 796.276611,532.436646 796.276611,520.560181 
	C785.373291,520.560181 774.989502,520.560181 764.080322,520.560181 
	C764.080322,532.256897 764.080322,543.810730 764.080322,555.603149 
	C758.487915,555.603149 753.417358,555.603149 748.063477,555.603149 
	C748.063477,528.701233 748.063477,502.001068 748.063477,475.026672 
	C753.319580,475.026672 758.395203,475.026672 763.924011,475.026672 
	C763.924011,485.334625 763.924011,495.580933 763.924011,506.206055 
	C774.742737,506.206055 785.119446,506.206055 795.930420,506.206055 
	C795.930420,496.024689 795.930420,485.763794 795.930420,475.131592 
	C801.565918,475.131592 806.779236,475.131592 812.558167,475.131592 
	C812.558167,485.268829 812.558167,495.384460 812.558044,506.000122 
z"/>
<path fill="#4B4F51" opacity="1.000000" stroke="none" 
	d="
M1670.134766,485.020111 
	C1670.134766,508.787231 1670.134766,532.058350 1670.134766,555.590454 
	C1664.590576,555.590454 1659.520874,555.590454 1653.899902,555.590454 
	C1653.899902,543.870361 1653.899902,532.316589 1653.899902,520.506714 
	C1643.104248,520.506714 1632.853638,520.506714 1622.045776,520.506714 
	C1622.045776,532.082947 1622.045776,543.634033 1622.045776,555.513916 
	C1616.285034,555.513916 1611.075195,555.513916 1605.575806,555.513916 
	C1605.575806,528.670959 1605.575806,501.959045 1605.575806,475.000275 
	C1610.939087,475.000275 1616.050659,475.000275 1621.768311,475.000275 
	C1621.768311,485.410400 1621.768311,495.794800 1621.768311,506.411011 
	C1632.627197,506.411011 1642.884399,506.411011 1653.761597,506.411011 
	C1653.761597,495.939026 1653.761597,485.575623 1653.761597,474.990662 
	C1659.450439,474.990662 1664.521606,474.990662 1670.134766,474.990662 
	C1670.134766,478.290649 1670.134766,481.407379 1670.134766,485.020111 
z"/>
<path fill="#4B4F51" opacity="1.000000" stroke="none" 
	d="
M1067.177490,490.004608 
	C1067.177612,484.859924 1067.177612,480.214355 1067.177612,475.162231 
	C1072.668213,475.162231 1077.890015,475.162231 1083.236572,475.162231 
	C1083.372070,475.525757 1083.691040,475.978790 1083.687012,476.428955 
	C1083.521851,494.754517 1083.636963,513.089905 1083.040649,531.402100 
	C1082.548706,546.508057 1074.355103,555.215942 1059.359253,556.654236 
	C1052.810547,557.282349 1045.999756,556.885071 1039.490234,555.830017 
	C1028.820801,554.100769 1020.524353,545.735413 1020.181396,535.160400 
	C1019.535339,515.236145 1019.995056,495.276093 1019.995056,475.039551 
	C1024.442993,475.039551 1029.519653,475.039551 1035.301270,475.039551 
	C1035.301270,476.841278 1035.288208,478.599060 1035.303345,480.356598 
	C1035.442261,496.518372 1035.357910,512.686584 1035.814209,528.839417 
	C1036.088135,538.530334 1042.037231,543.231323 1052.510864,543.041626 
	C1062.133179,542.867249 1066.776001,538.425232 1066.979126,528.499146 
	C1067.238403,515.837952 1067.128296,503.169220 1067.177490,490.004608 
z"/>
<path fill="#2282C1" opacity="1.000000" stroke="none" 
	d="
M150.686279,492.534180 
	C160.135925,499.501495 167.046478,507.918915 169.244522,519.489197 
	C169.612930,521.428467 169.742752,523.413086 170.037567,525.818359 
	C169.944763,550.280823 151.975616,567.045532 130.701996,567.826782 
	C114.191208,568.433167 98.649040,558.343140 92.291466,543.191345 
	C85.832451,527.797852 89.412231,510.056183 101.310951,498.489807 
	C113.288528,486.846802 131.062088,483.746002 146.208237,490.657806 
	C147.570114,491.279327 148.930008,491.905182 150.686279,492.534180 
M105.964783,514.644409 
	C100.342583,526.296448 102.223984,538.436951 110.943459,546.771545 
	C119.279175,554.739319 131.785492,556.505493 141.941620,551.149170 
	C152.400665,545.633057 157.841782,534.532532 155.904007,522.664246 
	C154.247696,512.519775 145.875809,503.585022 135.871796,501.285095 
	C124.127396,498.585114 113.609619,503.093323 105.964783,514.644409 
z"/>
<path fill="#237EC1" opacity="1.000000" stroke="none" 
	d="
M401.284119,139.775330 
	C388.426758,146.292725 375.690277,145.652359 362.589417,140.755737 
	C361.207367,139.686035 360.263245,138.328720 358.993958,137.431259 
	C344.201477,126.972000 337.917877,109.066246 343.165009,92.086838 
	C348.390259,75.178261 363.993286,63.776047 381.875153,63.798615 
	C399.589935,63.820976 414.875214,74.982750 420.246277,91.818344 
	C425.659912,108.787392 419.530365,126.761292 404.765320,137.221390 
	C403.680695,137.989777 402.607452,138.774246 401.284119,139.775330 
M359.076447,118.293518 
	C368.762787,132.053833 385.624664,135.034454 398.217621,125.212387 
	C410.534180,115.605888 412.187836,98.057976 401.882996,86.317085 
	C392.885864,76.066116 377.987030,74.216049 366.663361,81.943726 
	C354.904449,89.968414 351.735291,104.160332 359.076447,118.293518 
z"/>
<path fill="#2181C1" opacity="1.000000" stroke="none" 
	d="
M593.204468,526.389160 
	C593.635986,523.110657 594.165649,520.189636 594.827271,517.298828 
	C597.214905,506.865570 604.072449,499.543762 612.034973,492.617615 
	C614.015686,491.710266 615.927612,491.239960 617.705444,490.462952 
	C633.035278,483.762848 650.585754,486.985168 662.446350,498.736755 
	C674.138489,510.321442 677.632385,527.742554 671.315552,542.959351 
	C664.978394,558.225159 649.723572,568.183350 633.178101,567.855103 
	C612.370361,567.442383 595.108765,550.897522 593.837952,530.170715 
	C593.767944,529.028503 593.525391,527.896973 593.204468,526.389160 
M660.744568,524.042725 
	C660.457825,522.742981 660.270752,521.411499 659.868652,520.148438 
	C656.619812,509.944092 649.863403,503.278564 639.330994,501.189636 
	C628.143555,498.970795 618.798157,502.751862 612.199524,511.979797 
	C605.844238,520.867493 605.362915,530.554382 610.525146,540.260559 
	C616.247864,551.020508 629.000366,556.506592 640.714966,553.466187 
	C653.380432,550.179077 661.031738,539.303833 660.744568,524.042725 
z"/>
<path fill="#494D4F" opacity="1.000000" stroke="none" 
	d="
M1421.098877,514.993408 
	C1421.172241,519.987488 1420.972412,524.507690 1421.374756,528.973572 
	C1422.250488,538.694397 1427.937866,543.278015 1438.352417,543.050964 
	C1447.920898,542.842407 1452.581177,538.428894 1452.801270,528.436035 
	C1453.109375,514.450500 1452.967163,500.454926 1453.011719,486.463654 
	C1453.023438,482.816101 1453.013550,479.168488 1453.013550,475.142273 
	C1458.420044,475.142273 1463.606445,475.142273 1469.322144,475.142273 
	C1469.322144,480.879364 1469.356079,486.494537 1469.315308,492.109131 
	C1469.220947,505.099854 1469.383545,518.101318 1468.897705,531.078064 
	C1468.335205,546.091431 1460.724365,554.751221 1445.933228,556.491455 
	C1438.937256,557.314575 1431.576660,556.873108 1424.609619,555.675781 
	C1414.324463,553.908142 1406.524048,545.813049 1406.046875,535.502014 
	C1405.124512,515.567871 1405.282349,495.583649 1405.007568,475.619995 
	C1405.006104,475.499573 1405.220215,475.376190 1405.562500,475.008057 
	C1410.404785,475.008057 1415.477783,475.008057 1421.098877,475.008057 
	C1421.098877,488.279327 1421.098877,501.387085 1421.098877,514.993408 
z"/>
<path fill="#4B4F51" opacity="1.000000" stroke="none" 
	d="
M1689.952759,527.895630 
	C1688.028320,516.976074 1688.175049,506.573303 1691.932739,496.485443 
	C1699.884521,475.137756 1727.180176,466.210632 1746.337036,478.598297 
	C1752.717041,482.723938 1756.122192,487.598602 1759.016357,497.040283 
	C1756.484131,497.688232 1753.972290,498.353180 1751.448853,498.970490 
	C1748.872437,499.600861 1746.284546,500.184509 1743.379639,500.863953 
	C1742.967529,500.057953 1742.458374,499.247559 1742.119995,498.371277 
	C1739.339355,491.172394 1733.856567,487.585327 1726.394897,487.385223 
	C1718.647827,487.177551 1712.056885,490.228027 1708.966675,497.568787 
	C1703.979370,509.415710 1704.093262,521.688904 1709.261719,533.434387 
	C1712.270264,540.271423 1718.513794,543.192322 1725.992554,543.025391 
	C1733.016479,542.868591 1737.907715,539.307983 1740.941772,533.131104 
	C1742.027222,530.921387 1742.775879,528.546326 1743.802002,525.931396 
	C1748.881226,527.498718 1753.893555,529.045349 1758.852783,530.575562 
	C1756.760254,545.136169 1745.134521,555.717346 1730.222290,556.940247 
	C1709.752930,558.618835 1695.380981,548.386292 1689.952759,527.895630 
z"/>
<path fill="#4B4F51" opacity="1.000000" stroke="none" 
	d="
M861.358154,542.024658 
	C873.851318,545.192993 880.178223,541.083313 886.156677,525.958313 
	C891.118774,527.485596 896.116272,529.023743 901.048889,530.541931 
	C899.552856,544.665283 887.467102,555.709900 872.520081,556.937622 
	C849.433899,558.833801 832.832886,544.550964 831.311096,520.861938 
	C830.900757,514.475037 831.438721,507.809509 832.837524,501.562103 
	C838.741699,475.193115 865.002441,468.520081 884.031311,476.166351 
	C893.112549,479.815460 898.651245,486.848633 901.307190,497.061615 
	C896.169495,498.334930 891.108276,499.589325 885.752563,500.916687 
	C885.302307,500.045197 884.793701,499.245239 884.456116,498.378662 
	C881.656311,491.192078 876.186218,487.590698 868.709229,487.381866 
	C860.940186,487.164856 854.382996,490.254761 851.244629,497.561584 
	C846.226990,509.243652 846.353455,521.426392 851.439392,532.968872 
	C853.057251,536.640625 857.705566,538.977051 861.358154,542.024658 
z"/>
<path fill="#4B4F51" opacity="1.000000" stroke="none" 
	d="
M1231.756104,478.973877 
	C1231.340576,477.473663 1231.063721,476.375305 1230.658203,474.766022 
	C1235.995728,474.766022 1240.981812,474.538300 1245.918213,474.932007 
	C1247.098145,475.026123 1248.626221,477.011078 1249.125610,478.431763 
	C1255.133911,495.523071 1260.976318,512.672729 1266.872314,529.803589 
	C1267.299072,531.043518 1267.807373,532.255371 1268.557129,534.207947 
	C1274.490967,516.360718 1280.512939,499.321381 1285.705566,482.032928 
	C1287.457886,476.198547 1289.858521,473.713898 1295.923340,474.674530 
	C1298.822998,475.133881 1301.855713,474.753601 1305.593872,474.753601 
	C1304.619751,477.517761 1303.873169,479.661987 1303.109253,481.799988 
	C1294.831909,504.964478 1286.483887,528.104248 1278.349365,551.318848 
	C1277.203369,554.589355 1275.919189,556.026611 1272.153809,555.962097 
	C1259.236328,555.740601 1259.259888,555.907410 1254.903564,543.695740 
	C1247.253052,522.249023 1239.566406,500.815094 1231.756104,478.973877 
z"/>
<path fill="#494D4F" opacity="1.000000" stroke="none" 
	d="
M1139.915283,554.631348 
	C1134.763184,555.447693 1129.706299,555.803284 1124.037598,556.201904 
	C1124.037598,533.446899 1124.037598,511.256836 1124.037598,488.478088 
	C1115.754272,488.478088 1108.028198,488.478088 1100.011353,488.478088 
	C1100.011353,483.802460 1100.011353,479.704559 1100.011353,475.182983 
	C1121.062378,475.182983 1142.252075,475.182983 1163.737305,475.182983 
	C1163.737305,479.315460 1163.737305,483.544434 1163.737305,488.322418 
	C1155.892090,488.322418 1148.159668,488.322418 1140.010376,488.322418 
	C1140.010376,510.632965 1140.010376,532.401794 1139.915283,554.631348 
z"/>
<path fill="#4B4F51" opacity="1.000000" stroke="none" 
	d="
M1537.014282,518.732178 
	C1543.458252,518.731995 1549.405762,518.731995 1555.606934,518.731995 
	C1555.606934,523.941711 1555.606934,528.683350 1555.606934,533.770508 
	C1545.645752,533.770508 1535.756348,533.770508 1525.514160,533.770508 
	C1525.514160,528.973938 1525.514160,524.104736 1525.514160,518.732300 
	C1529.283569,518.732300 1532.900635,518.732300 1537.014282,518.732178 
z"/>
<path fill="#515557" opacity="1.000000" stroke="none" 
	d="
M1181.416748,556.324097 
	C1180.890259,565.406982 1176.175903,570.697876 1167.935181,573.783630 
	C1166.895264,571.728455 1165.947876,569.855957 1164.861450,567.708618 
	C1169.674927,565.403015 1173.737915,562.633362 1173.129395,556.167114 
	C1170.994507,555.997620 1168.773560,555.821289 1166.301392,555.625061 
	C1166.301392,550.537781 1166.301392,545.642517 1166.301392,540.450317 
	C1171.331421,540.450317 1176.224609,540.450317 1181.480103,540.450317 
	C1181.480103,545.691956 1181.480103,550.790405 1181.416748,556.324097 
z"/>
<path fill="#080BA1" opacity="1.000000" stroke="none" 
	d="
M794.975952,84.974854 
	C798.456909,84.974854 801.442505,84.974854 805.009399,84.974854 
	C805.009399,123.525551 805.009399,161.895279 805.009399,200.531158 
	C849.322876,200.531158 893.054016,200.531158 937.228271,200.531158 
	C937.228271,162.046555 937.228271,123.789482 937.228271,85.255280 
	C957.236389,85.255280 976.803284,85.255280 996.637939,85.255280 
	C996.637939,180.765808 996.637939,276.177155 996.637939,371.895660 
	C977.002808,371.895660 957.425415,371.895660 937.380127,371.895660 
	C937.380127,332.953033 937.380127,294.027954 937.380127,254.790466 
	C893.178833,254.790466 849.443054,254.790466 805.261230,254.790466 
	C805.261230,293.803680 805.261230,332.703979 805.261230,371.902222 
	C785.396729,371.902222 765.973145,371.902222 746.151245,371.902222 
	C746.151245,276.521515 746.151245,180.991730 746.151245,84.974854 
	C762.244873,84.974854 778.362671,84.974854 794.975952,84.974854 
z"/>
<path fill="#080BA1" opacity="1.000000" stroke="none" 
	d="
M1048.974365,161.000000 
	C1048.974365,135.530258 1048.974365,110.560524 1048.974365,85.292984 
	C1050.334961,85.171494 1051.440674,84.986580 1052.546387,84.986420 
	C1100.036133,84.979500 1147.526245,84.877853 1195.015503,85.042961 
	C1219.083008,85.126640 1241.206055,91.643311 1259.464233,107.868889 
	C1286.651733,132.029678 1294.483032,162.929947 1286.294922,197.274506 
	C1277.972412,232.182938 1253.730225,252.392532 1219.563599,260.834381 
	C1210.773926,263.006104 1201.450684,263.686249 1192.354370,263.820831 
	C1166.365601,264.205353 1140.367432,263.956940 1114.373047,263.957458 
	C1112.573120,263.957520 1110.773315,263.957489 1108.560303,263.957489 
	C1108.560303,300.150665 1108.560303,335.899536 1108.560303,371.924316 
	C1088.568359,371.924316 1069.005493,371.924316 1048.974365,371.924316 
	C1048.974365,301.705780 1048.974365,231.602890 1048.974365,161.000000 
M1114.695679,136.200470 
	C1112.768921,136.200470 1110.842163,136.200470 1108.872314,136.200470 
	C1108.872314,162.712555 1108.872314,188.614548 1108.872314,214.744644 
	C1134.053223,214.744644 1158.875366,214.777618 1183.697144,214.711151 
	C1187.684570,214.700470 1191.698486,214.464066 1195.652588,213.959061 
	C1213.862671,211.633255 1227.370483,198.068054 1228.935181,180.709106 
	C1230.814209,159.862488 1221.070679,144.049850 1202.372925,138.621552 
	C1196.859985,137.021072 1190.905273,136.368134 1185.141968,136.305161 
	C1161.980347,136.052017 1138.814453,136.200394 1114.695679,136.200470 
z"/>
<path fill="#080BA1" opacity="1.000000" stroke="none" 
	d="
M1625.211670,301.777344 
	C1578.641724,219.551529 1617.556030,107.612389 1724.270386,84.249039 
	C1775.921387,72.940895 1822.997559,85.155876 1864.021362,119.052155 
	C1869.279663,123.396797 1874.382690,127.929558 1879.115967,131.995850 
	C1864.645508,146.862869 1851.676392,160.187317 1838.344727,173.884277 
	C1836.628174,171.983307 1834.954956,170.039566 1833.187134,168.186157 
	C1805.670654,139.336365 1772.262085,128.400192 1733.690063,138.573410 
	C1688.440308,150.507919 1663.413452,192.246246 1667.536621,236.720535 
	C1671.587769,280.417267 1699.273682,311.559998 1741.048462,319.436310 
	C1777.299072,326.271088 1808.483887,315.571472 1834.130493,288.976868 
	C1835.285522,287.779266 1836.386475,286.529388 1837.505615,285.311584 
	C1850.143799,298.334503 1862.741455,311.315521 1875.466431,324.427795 
	C1821.233276,393.537537 1684.320435,401.293701 1625.211670,301.777344 
z"/>
<path fill="#080BA1" opacity="1.000000" stroke="none" 
	d="
M1565.335449,300.664062 
	C1572.933350,308.404480 1580.280518,315.895508 1587.936401,323.701263 
	C1587.036621,324.803131 1585.990967,326.226410 1584.802368,327.518005 
	C1560.231812,354.217773 1529.452271,369.452637 1493.954346,374.518555 
	C1448.294067,381.034790 1406.105713,371.370911 1370.427124,341.364105 
	C1325.857788,303.879883 1309.257935,254.994537 1320.639771,198.447983 
	C1332.159668,141.213837 1368.604614,103.979103 1423.940552,87.368217 
	C1477.505493,71.288963 1527.381592,81.777420 1571.799683,116.057816 
	C1578.453857,121.193214 1584.039673,127.712753 1589.643433,133.131393 
	C1576.098755,147.058243 1563.129517,160.393387 1549.847778,174.049850 
	C1527.657715,147.299332 1499.631470,133.618378 1464.994507,135.221100 
	C1441.036255,136.329697 1420.414429,145.676010 1403.815918,163.082916 
	C1369.529419,199.039474 1370.254517,259.666473 1404.827393,294.529877 
	C1439.431763,329.425049 1506.900391,334.236938 1550.031006,284.449951 
	C1555.082397,289.807037 1560.083618,295.110870 1565.335449,300.664062 
z"/>
<path fill="#000000" opacity="1.000000" stroke="none" 
	d="
M1549.027832,215.001404 
	C1554.621216,214.354614 1559.742432,213.707840 1564.824829,213.065994 
	C1564.824829,223.521591 1564.824829,234.635803 1564.824829,245.545944 
	C1559.705200,245.019440 1554.750610,244.393280 1549.776978,244.021301 
	C1537.153931,243.077225 1526.924927,248.528809 1518.541016,257.165680 
	C1510.092041,265.869507 1501.197388,273.565399 1489.386597,277.157990 
	C1469.849243,283.100952 1451.820312,280.137390 1436.132202,266.909149 
	C1427.332275,259.489044 1422.744995,249.521759 1420.877441,238.006531 
	C1418.734131,224.790833 1420.515503,212.414825 1427.073853,200.901596 
	C1435.157959,186.710114 1447.692261,179.059479 1463.859253,176.964951 
	C1480.991577,174.745377 1495.715942,180.051712 1508.578003,191.005432 
	C1513.067505,194.828857 1517.004028,199.316391 1521.078613,203.609253 
	C1528.565796,211.497604 1537.934448,214.731705 1549.027832,215.001404 
z"/>
<path fill="#FDFDFE" opacity="1.000000" stroke="none" 
	d="
M421.624969,356.468262 
	C439.038055,386.910309 423.180725,421.994598 389.467834,428.403748 
	C364.804993,433.092346 338.906799,414.667480 335.183746,389.784180 
	C331.187653,363.075867 349.290222,338.157867 374.969635,335.100555 
	C394.678741,332.754028 410.077515,340.000977 421.624969,356.468262 
z"/>
<path fill="#FDFEFE" opacity="1.000000" stroke="none" 
	d="
M106.123184,514.306396 
	C113.609619,503.093323 124.127396,498.585114 135.871796,501.285095 
	C145.875809,503.585022 154.247696,512.519775 155.904007,522.664246 
	C157.841782,534.532532 152.400665,545.633057 141.941620,551.149170 
	C131.785492,556.505493 119.279175,554.739319 110.943459,546.771545 
	C102.223984,538.436951 100.342583,526.296448 106.123184,514.306396 
z"/>
<path fill="#FCFDFE" opacity="1.000000" stroke="none" 
	d="
M358.880920,117.981842 
	C351.735291,104.160332 354.904449,89.968414 366.663361,81.943726 
	C377.987030,74.216049 392.885864,76.066116 401.882996,86.317085 
	C412.187836,98.057976 410.534180,115.605888 398.217621,125.212387 
	C385.624664,135.034454 368.762787,132.053833 358.880920,117.981842 
z"/>
<path fill="#FDFDFE" opacity="1.000000" stroke="none" 
	d="
M660.777466,524.472961 
	C661.031738,539.303833 653.380432,550.179077 640.714966,553.466187 
	C629.000366,556.506592 616.247864,551.020508 610.525146,540.260559 
	C605.362915,530.554382 605.844238,520.867493 612.199524,511.979797 
	C618.798157,502.751862 628.143555,498.970795 639.330994,501.189636 
	C649.863403,503.278564 656.619812,509.944092 659.868652,520.148438 
	C660.270752,521.411499 660.457825,522.742981 660.777466,524.472961 
z"/>
<path fill="#FDFDFE" opacity="1.000000" stroke="none" 
	d="
M1115.172852,136.200439 
	C1138.814453,136.200394 1161.980347,136.052017 1185.141968,136.305161 
	C1190.905273,136.368134 1196.859985,137.021072 1202.372925,138.621552 
	C1221.070679,144.049850 1230.814209,159.862488 1228.935181,180.709106 
	C1227.370483,198.068054 1213.862671,211.633255 1195.652588,213.959061 
	C1191.698486,214.464066 1187.684570,214.700470 1183.697144,214.711151 
	C1158.875366,214.777618 1134.053223,214.744644 1108.872314,214.744644 
	C1108.872314,188.614548 1108.872314,162.712555 1108.872314,136.200470 
	C1110.842163,136.200470 1112.768921,136.200470 1115.172852,136.200439 
z"/>
</svg>